<svg width="26" height="25" viewBox="0 0 26 25" fill="none" xmlns="http://www.w3.org/2000/svg">
<path fill-rule="evenodd" clip-rule="evenodd" d="M12.6867 8.85109C12.6867 9.78413 12.3358 10.636 11.7589 11.2805C12.5686 11.8565 13.1743 12.675 13.4885 13.6177C13.8026 14.5604 13.809 15.5786 13.5066 16.5251C13.2042 17.4717 12.6087 18.2976 11.8062 18.8836C11.0037 19.4696 10.0357 19.7854 9.04201 19.7852H4.35596C3.94169 19.7852 3.54438 19.6206 3.25145 19.3277C2.95851 19.0348 2.79395 18.6375 2.79395 18.2232V5.72706C2.79395 5.31278 2.95851 4.91548 3.25145 4.62254C3.54438 4.32961 3.94169 4.16504 4.35596 4.16504H8.52134C9.62607 4.16504 10.6855 4.60389 11.4667 5.38505C12.2479 6.16621 12.6867 7.22569 12.6867 8.33042V8.85109ZM4.87663 10.4131V6.24773H8.52134C9.0737 6.24773 9.60344 6.46715 9.99402 6.85773C10.3846 7.24831 10.604 7.77805 10.604 8.33042V8.85109C10.604 9.26536 10.4395 9.66267 10.1465 9.9556C9.85359 10.2485 9.45628 10.4131 9.04201 10.4131H4.87663ZM4.87663 12.4958H9.04201C9.73247 12.4958 10.3946 12.7701 10.8829 13.2583C11.3711 13.7465 11.6454 14.4087 11.6454 15.0992C11.6454 15.7896 11.3711 16.4518 10.8829 16.94C10.3946 17.4282 9.73247 17.7025 9.04201 17.7025H4.87663V12.4958Z" fill="#C4B6B6"/>
<path d="M16.3315 6.24838C16.3315 5.97219 16.4413 5.70732 16.6365 5.51203C16.8318 5.31674 17.0967 5.20703 17.3729 5.20703H21.0176C21.2938 5.20703 21.5586 5.31674 21.7539 5.51203C21.9492 5.70732 22.0589 5.97219 22.0589 6.24838C22.0589 6.52456 21.9492 6.78943 21.7539 6.98472C21.5586 7.18001 21.2938 7.28972 21.0176 7.28972H17.3729C17.0967 7.28972 16.8318 7.18001 16.6365 6.98472C16.4413 6.78943 16.3315 6.52456 16.3315 6.24838Z" fill="#C4B6B6"/>
<path fill-rule="evenodd" clip-rule="evenodd" d="M19.1951 8.33105C16.2366 8.33105 13.728 10.6033 13.728 13.5378V14.5791C13.728 17.5136 16.2366 19.7858 19.1951 19.7858C20.7727 19.7858 21.9151 19.3318 22.6805 18.8382C23.1407 18.5425 23.5021 18.1822 23.8499 17.7677C24.0012 17.5404 24.0572 17.2628 24.0058 16.9946C23.9545 16.7265 23.7998 16.4892 23.5752 16.334C23.3506 16.1787 23.074 16.1179 22.8049 16.1646C22.5359 16.2113 22.296 16.3618 22.1369 16.5837C21.9716 16.7827 21.7746 16.953 21.5537 17.0877C21.1049 17.3762 20.3499 17.7032 19.1951 17.7032C17.2655 17.7032 15.8107 16.2453 15.8107 14.5791H23.6208C23.897 14.5791 24.1619 14.4694 24.3571 14.2741C24.5524 14.0788 24.6621 13.814 24.6621 13.5378C24.6621 10.6033 22.1535 8.33105 19.1951 8.33105ZM22.3847 12.4964C21.9265 11.3083 20.7061 10.4137 19.1951 10.4137C17.6841 10.4137 16.4636 11.3083 16.0054 12.4964H22.3847Z" fill="#C4B6B6"/>
</svg>
