<svg width="26" height="25" viewBox="0 0 26 25" fill="none" xmlns="http://www.w3.org/2000/svg">
<path fill-rule="evenodd" clip-rule="evenodd" d="M4.16801 11.1616C6.86717 11.3855 9.45179 10.844 11.5918 9.62044C10.5151 8.02127 9.2537 6.55464 7.83354 5.25096C6.85507 5.93757 6.02583 6.81528 5.39584 7.83114C4.76585 8.84699 4.34818 9.97994 4.16801 11.1616ZM7.39409 3.05997C5.74717 4.02381 4.38131 5.40208 3.4324 7.05765C2.48349 8.71322 1.9846 10.5884 1.98535 12.4966C1.98535 18.5354 6.88071 23.4307 12.9195 23.4307C18.9582 23.4307 23.8536 18.5354 23.8536 12.4966C23.8536 6.45787 18.9582 1.56251 12.9195 1.56251C10.9771 1.55937 9.06937 2.07604 7.39409 3.05893V3.05997ZM9.77461 4.21898C11.0876 5.49459 12.2664 6.90152 13.2923 8.41768C14.5909 7.29725 15.5985 5.87869 16.2289 4.28355C15.177 3.86017 14.0534 3.64344 12.9195 3.6452C11.8453 3.644 10.7799 3.8388 9.77565 4.22002L9.77461 4.21898ZM18.0647 5.29365C17.2679 7.20694 16.0113 8.89412 14.4065 10.2057C14.7689 10.8398 15.1052 11.4886 15.4145 12.1499C17.3754 11.3866 19.4966 11.0346 21.6782 11.2147C21.5058 10.0355 21.0969 8.90334 20.4762 7.88605C19.8554 6.86876 19.0356 5.98734 18.0658 5.29469L18.0647 5.29365ZM21.7334 13.3099C19.8361 13.1162 17.9637 13.4036 16.2226 14.0711C16.9424 15.9742 17.4192 17.9604 17.642 19.9828C18.7898 19.2587 19.7557 18.2803 20.465 17.1232C21.1743 15.9661 21.6079 14.6614 21.7324 13.3099H21.7334ZM15.6353 20.9221C15.4821 18.8873 15.0442 16.8841 14.3347 14.9709C12.1291 16.2382 10.2359 18.1324 8.92071 20.3952C10.1599 21.0236 11.5301 21.3501 12.9195 21.3481C13.8671 21.3481 14.7803 21.1991 15.6363 20.9232L15.6353 20.9221ZM7.18478 19.2393C8.70931 16.663 10.9232 14.4783 13.5287 13.034C13.2678 12.4764 12.9865 11.9286 12.6852 11.3918C10.1714 12.8413 7.16604 13.4786 4.09824 13.2443C4.29393 15.5722 5.40372 17.7277 7.18478 19.2393Z" fill="#C4B6B6"/>
</svg>
