<svg width="26" height="25" viewBox="0 0 26 25" fill="none" xmlns="http://www.w3.org/2000/svg">
<path fill-rule="evenodd" clip-rule="evenodd" d="M2.59961 6.24838C2.59961 5.14366 3.03846 4.08418 3.81962 3.30302C4.60078 2.52186 5.66026 2.08301 6.76499 2.08301H19.2611C20.3658 2.08301 21.4253 2.52186 22.2065 3.30302C22.9876 4.08418 23.4265 5.14366 23.4265 6.24838V18.7445C23.4265 19.8492 22.9876 20.9087 22.2065 21.6899C21.4253 22.471 20.3658 22.9099 19.2611 22.9099H6.76499C5.66026 22.9099 4.60078 22.471 3.81962 21.6899C3.03846 20.9087 2.59961 19.8492 2.59961 18.7445V6.24838ZM6.76499 4.1657C6.21262 4.1657 5.68288 4.38512 5.2923 4.7757C4.90172 5.16628 4.6823 5.69602 4.6823 6.24838V18.7445C4.6823 19.2969 4.90172 19.8266 5.2923 20.2172C5.68288 20.6078 6.21262 20.8272 6.76499 20.8272H13.0131V13.5378H11.9717C11.6955 13.5378 11.4307 13.4281 11.2354 13.2328C11.0401 13.0375 10.9304 12.7726 10.9304 12.4965C10.9304 12.2203 11.0401 11.9554 11.2354 11.7601C11.4307 11.5648 11.6955 11.4551 11.9717 11.4551H13.0131V9.89309C13.0131 8.92645 13.397 7.99941 14.0806 7.31589C14.7641 6.63238 15.6911 6.24838 16.6578 6.24838H17.2826C17.5587 6.24838 17.8236 6.3581 18.0189 6.55339C18.2142 6.74868 18.3239 7.01355 18.3239 7.28973C18.3239 7.56591 18.2142 7.83078 18.0189 8.02607C17.8236 8.22136 17.5587 8.33107 17.2826 8.33107H16.6578C16.4526 8.33107 16.2495 8.37148 16.06 8.44998C15.8705 8.52847 15.6983 8.64353 15.5532 8.78858C15.4082 8.93362 15.2931 9.10582 15.2146 9.29533C15.1361 9.48484 15.0957 9.68796 15.0957 9.89309V11.4551H17.2826C17.5587 11.4551 17.8236 11.5648 18.0189 11.7601C18.2142 11.9554 18.3239 12.2203 18.3239 12.4965C18.3239 12.7726 18.2142 13.0375 18.0189 13.2328C17.8236 13.4281 17.5587 13.5378 17.2826 13.5378H15.0957V20.8272H19.2611C19.8135 20.8272 20.3432 20.6078 20.7338 20.2172C21.1244 19.8266 21.3438 19.2969 21.3438 18.7445V6.24838C21.3438 5.69602 21.1244 5.16628 20.7338 4.7757C20.3432 4.38512 19.8135 4.1657 19.2611 4.1657H6.76499Z" fill="#C4B6B6"/>
</svg>
