<svg width="26" height="25" viewBox="0 0 26 25" fill="none" xmlns="http://www.w3.org/2000/svg">
<path fill-rule="evenodd" clip-rule="evenodd" d="M7.09458 2.08301C5.98985 2.08301 4.93037 2.52186 4.14921 3.30302C3.36805 4.08418 2.9292 5.14366 2.9292 6.24838V18.7445C2.9292 19.8492 3.36805 20.9087 4.14921 21.6899C4.93037 22.471 5.98985 22.9099 7.09458 22.9099H19.5907C20.6954 22.9099 21.7549 22.471 22.5361 21.6899C23.3172 20.9087 23.7561 19.8492 23.7561 18.7445V6.24838C23.7561 5.14366 23.3172 4.08418 22.5361 3.30302C21.7549 2.52186 20.6954 2.08301 19.5907 2.08301H7.09458ZM5.01189 6.24838C5.01189 5.69602 5.23131 5.16628 5.62189 4.7757C6.01247 4.38512 6.54221 4.1657 7.09458 4.1657H19.5907C20.1431 4.1657 20.6728 4.38512 21.0634 4.7757C21.454 5.16628 21.6734 5.69602 21.6734 6.24838V18.7445C21.6734 19.2969 21.454 19.8266 21.0634 20.2172C20.6728 20.6078 20.1431 20.8272 19.5907 20.8272H7.09458C6.54221 20.8272 6.01247 20.6078 5.62189 20.2172C5.23131 19.8266 5.01189 19.2969 5.01189 18.7445V6.24838ZM10.2186 11.4551C10.2186 11.1789 10.1089 10.9141 9.91361 10.7188C9.71832 10.5235 9.45345 10.4138 9.17727 10.4138C8.90108 10.4138 8.63621 10.5235 8.44092 10.7188C8.24563 10.9141 8.13592 11.1789 8.13592 11.4551V17.7032C8.13592 17.9794 8.24563 18.2442 8.44092 18.4395C8.63621 18.6348 8.90108 18.7445 9.17727 18.7445C9.45345 18.7445 9.71832 18.6348 9.91361 18.4395C10.1089 18.2442 10.2186 17.9794 10.2186 17.7032V11.4551ZM10.7393 7.8104C10.7393 8.22467 10.5747 8.62198 10.2818 8.91491C9.98884 9.20785 9.59154 9.37242 9.17727 9.37242C8.76299 9.37242 8.36569 9.20785 8.07275 8.91491C7.77982 8.62198 7.61525 8.22467 7.61525 7.8104C7.61525 7.39613 7.77982 6.99882 8.07275 6.70589C8.36569 6.41295 8.76299 6.24838 9.17727 6.24838C9.59154 6.24838 9.98884 6.41295 10.2818 6.70589C10.5747 6.99882 10.7393 7.39613 10.7393 7.8104ZM13.3426 10.4138C13.6967 10.4138 14.0091 10.5908 14.1965 10.8595C14.7333 10.5669 15.3348 10.4137 15.946 10.4138C18.1953 10.4138 19.5907 12.4194 19.5907 14.1324V17.7032C19.5907 17.9794 19.481 18.2442 19.2857 18.4395C19.0904 18.6348 18.8255 18.7445 18.5494 18.7445C18.2732 18.7445 18.0083 18.6348 17.813 18.4395C17.6177 18.2442 17.508 17.9794 17.508 17.7032V14.1314C17.508 13.3316 16.8207 12.4954 15.946 12.4954C15.4003 12.4954 14.7974 12.7922 14.384 13.4982V17.7032C14.384 17.9794 14.2743 18.2442 14.079 18.4395C13.8837 18.6348 13.6188 18.7445 13.3426 18.7445C13.0665 18.7445 12.8016 18.6348 12.6063 18.4395C12.411 18.2442 12.3013 17.9794 12.3013 17.7032V11.4551C12.3013 11.1789 12.411 10.9141 12.6063 10.7188C12.8016 10.5235 13.0665 10.4138 13.3426 10.4138Z" fill="#C4B6B6"/>
</svg>
