<svg width="25" height="25" viewBox="0 0 25 25" fill="none" xmlns="http://www.w3.org/2000/svg">
<path fill-rule="evenodd" clip-rule="evenodd" d="M3.6447 12.4966C3.64533 10.6134 4.24661 8.7794 5.36111 7.26134C6.47561 5.74328 8.04524 4.62025 9.84182 4.05551C11.6384 3.49078 13.5683 3.51378 15.3509 4.12116C17.1335 4.72855 18.6759 5.88866 19.7539 7.43285C20.832 8.97704 21.3894 10.8248 21.3451 12.7075C21.3009 14.5903 20.6573 16.4098 19.5079 17.9017C18.3586 19.3935 16.7634 20.4799 14.9542 21.0029C13.145 21.5258 11.2162 21.4582 9.44811 20.8097C10.0489 19.1993 10.6317 17.5824 11.1965 15.9591C11.7943 16.386 12.5659 16.662 13.5375 16.662C15.5525 16.662 17.6768 15.3343 18.2027 12.7007C18.866 9.39445 16.2179 6.24855 12.4961 6.24855C10.931 6.24855 9.39188 6.87752 8.24015 7.87513C7.08634 8.87586 6.24806 10.3171 6.24806 11.9759C6.24806 12.783 6.49174 13.6817 7.07176 14.2731C7.26832 14.4666 7.53302 14.5751 7.80882 14.5753C8.08463 14.5755 8.34947 14.4674 8.54631 14.2742C8.73772 14.0829 8.84715 13.8246 8.85143 13.5541C8.85571 13.2835 8.75449 13.0219 8.56922 12.8246C7.75072 11.8041 8.82955 10.1213 9.60431 9.44964C10.4093 8.75194 11.4725 8.33124 12.4961 8.33124C15.0235 8.33124 16.5407 10.3921 16.1617 12.2925C15.8451 13.8691 14.6455 14.5793 13.5375 14.5793C12.6857 14.5793 12.2275 14.22 11.9338 13.7546C12.0942 13.2505 12.2306 12.7924 12.3285 12.4196C12.5284 11.6521 12.6492 10.7263 11.9588 10.1505C11.4454 9.72351 10.8393 9.81724 10.4686 10.0036C9.77822 10.3473 9.37209 11.1533 9.37209 11.9759C9.37209 12.4352 9.44395 13.1475 9.7022 13.8837C9.03022 15.8878 8.32269 17.8799 7.57994 19.8589C6.36848 19.0507 5.37539 17.9557 4.68888 16.6714C4.00237 15.387 3.64369 13.9529 3.6447 12.4966V12.4966ZM12.4961 1.5625C6.45737 1.5625 1.56201 6.45786 1.56201 12.4966C1.56201 18.5354 6.45737 23.4307 12.4961 23.4307C18.5349 23.4307 23.4302 18.5354 23.4302 12.4966C23.4302 6.45786 18.5349 1.5625 12.4961 1.5625Z" fill="#C4B6B6"/>
</svg>
