<svg width="26" height="25" viewBox="0 0 26 25" fill="none" xmlns="http://www.w3.org/2000/svg">
<path fill-rule="evenodd" clip-rule="evenodd" d="M7.68232 4.23859C8.91319 2.77654 10.6564 2.08301 12.6308 2.08301C14.651 2.08301 16.3838 2.89942 17.5917 4.3875C18.6643 5.71001 19.2714 7.49487 19.3818 9.57027L19.4776 9.58485L19.4984 9.58798C19.6755 9.61297 19.8869 9.64421 20.1066 9.6869C20.9199 9.84415 22.308 10.2419 22.786 11.7321C23.0255 12.4808 22.9057 13.1744 22.4861 13.7242C22.1247 14.198 21.6082 14.4719 21.2385 14.6375C21.0553 14.7208 20.872 14.7916 20.7179 14.8509C21.0782 15.8256 21.7051 16.8284 22.3986 17.7365C23.0515 18.5925 22.8787 19.6765 22.5413 20.3836C22.2028 21.0917 21.4718 21.9008 20.4075 21.9467C19.8056 21.9727 19.1736 22.0352 18.5446 22.1497C18.2603 22.2018 17.925 22.3153 17.5084 22.4871C17.2596 22.5892 17.0315 22.6912 16.7857 22.8006C16.59 22.888 16.3838 22.9797 16.1453 23.0817C15.1665 23.5024 13.9637 23.9512 12.6308 23.9512C11.2979 23.9512 10.0951 23.5024 9.11625 23.0817C8.87778 22.9797 8.67055 22.888 8.47582 22.8006C8.2364 22.6927 7.99548 22.5882 7.75313 22.4871C7.33659 22.3153 7.00128 22.2007 6.71699 22.1487C6.08802 22.0341 5.45592 21.9727 4.85299 21.9467C3.78977 21.9008 3.05771 21.0917 2.72031 20.3836C2.38292 19.6765 2.21005 18.5925 2.86298 17.7365C3.56068 16.8222 4.19069 15.8121 4.54995 14.8311C4.39231 14.7691 4.2364 14.7028 4.08239 14.6322C3.72209 14.4635 3.23265 14.1938 2.87131 13.7419C2.46831 13.2358 2.29024 12.5829 2.44852 11.8352C2.78592 10.2347 4.2917 9.83582 5.08729 9.68586C5.31326 9.64421 5.53298 9.61297 5.7173 9.58694L5.75375 9.58173L5.87871 9.56403C5.9818 7.35117 6.58474 5.54131 7.68232 4.23859ZM9.27557 5.57984C8.48103 6.52226 7.94474 8.03741 7.94474 10.2659V10.3742L7.92183 10.4814C7.80624 11.0271 7.38658 11.2822 7.17831 11.3801C6.95962 11.4832 6.72324 11.5342 6.55662 11.5655C6.39418 11.5957 6.21298 11.6207 6.05157 11.6425L6.00367 11.6498C5.82566 11.6734 5.64824 11.7012 5.47154 11.7331C4.67492 11.8821 4.52392 12.0799 4.48539 12.2642C4.45832 12.3965 4.48227 12.4236 4.4958 12.4381L4.49997 12.4423C4.55516 12.5121 4.68845 12.6162 4.96545 12.7453C5.09458 12.8057 5.23099 12.8609 5.38199 12.9224L5.41948 12.9369C5.55173 12.989 5.70897 13.0525 5.84747 13.1181C5.98389 13.1806 6.21194 13.2952 6.40563 13.4805C6.63056 13.6961 6.90235 14.1168 6.7701 14.6718C6.39105 16.2661 5.43406 17.8011 4.51976 18.9986C4.50584 19.0336 4.50014 19.0714 4.50309 19.109C4.50309 19.2079 4.53121 19.3433 4.5989 19.486C4.66763 19.6286 4.7551 19.738 4.83632 19.8036C4.90297 19.8577 4.94046 19.866 4.94462 19.866C5.62254 19.8952 6.35044 19.966 7.08979 20.1003C7.59276 20.192 8.08948 20.3732 8.54768 20.5627C8.80072 20.6668 9.09126 20.796 9.37346 20.9209C9.57027 21.0084 9.76292 21.0938 9.93579 21.1677C10.872 21.5686 11.7456 21.8685 12.6308 21.8685C13.5159 21.8685 14.3907 21.5686 15.3258 21.1677C15.4986 21.0938 15.6913 21.0074 15.8881 20.9209C16.1693 20.796 16.4608 20.6668 16.7129 20.5627C17.171 20.3732 17.6678 20.192 18.1707 20.1003C18.9101 19.965 19.639 19.8952 20.3159 19.866C20.3222 19.866 20.3586 19.8577 20.4252 19.8036C20.5259 19.7157 20.6069 19.6074 20.6627 19.486C20.7211 19.3686 20.7538 19.24 20.7585 19.109C20.7585 19.0121 20.7345 18.9892 20.7429 19.0007C19.8286 17.8031 18.8705 16.2672 18.4904 14.6718C18.3498 14.0783 18.6716 13.6513 18.8934 13.4534C19.0913 13.2785 19.3225 13.1692 19.463 13.1077C19.6036 13.0452 19.7619 12.9859 19.8973 12.9349L19.9473 12.9151C20.1066 12.8557 20.2493 12.8005 20.3836 12.7391C20.6648 12.6131 20.7845 12.5162 20.8251 12.4673C20.8215 12.4336 20.8141 12.4004 20.8033 12.3684C20.7085 12.0726 20.4409 11.8727 19.7098 11.7311C19.5443 11.6998 19.3766 11.6748 19.1996 11.6478L19.16 11.6425C18.9952 11.6202 18.831 11.5938 18.6675 11.5634C18.4553 11.5262 18.2491 11.4611 18.0541 11.3697C17.8354 11.2614 17.4501 11.0021 17.3397 10.4814L17.3168 10.3742V10.2649C17.3168 8.23423 16.7889 6.70345 15.9745 5.70064C15.1779 4.71761 14.0481 4.1657 12.6308 4.1657C11.1677 4.1657 10.0483 4.66138 9.27453 5.57984H9.27557Z" fill="#C4B6B6"/>
</svg>
