<svg viewBox="0 0 69 69" fill="none" xmlns="http://www.w3.org/2000/svg"><path d="M42.593 63.889H25.556v4.259h17.037v-4.26Z" fill="#F7FEFF"/><path d="M51.111 59.63h-8.518v4.26h8.518v-4.26Z" fill="#F7FEFF"/><path d="M42.593 59.63H25.556v4.26h17.037v-4.26Z" fill="#231E2B"/><path d="M25.556 59.63h-8.519v4.26h8.519v-4.26ZM55.37 55.371h-4.259v4.26h4.26v-4.26Z" fill="#F7FEFF"/><path d="M51.111 55.371h-8.518v4.26h8.518v-4.26ZM25.556 55.371h-8.519v4.26h8.519v-4.26Z" fill="#231E2B"/><path d="M17.037 55.371h-4.26v4.26h4.26v-4.26ZM59.631 51.111h-4.259v4.26h4.26v-4.26Z" fill="#F7FEFF"/><path d="M55.37 51.111h-4.259v4.26h4.26v-4.26Z" fill="#231E2B"/><path d="M34.074 51.111h-8.518v4.26h8.518v-4.26Z" fill="#F5F38E"/><path d="M21.297 51.11v-4.259h-4.26V25.555h4.26v-4.26h4.259v-4.259h17.037v-4.26h-8.519V8.519h-8.518v4.259h-8.519v4.26h-4.26v8.518H8.52v17.037h4.259v8.519h4.26v4.26h8.518v-4.26h-4.26Z" fill="#E2B436"/><path d="M17.037 51.111h-4.26v4.26h4.26v-4.26Z" fill="#231E2B"/><path d="M12.778 51.111h-4.26v4.26h4.26v-4.26Z" fill="#F7FEFF"/><path d="M25.556 46.852h-4.26v4.259h4.26v-4.26Z" fill="#F5F38E"/><path d="M12.778 42.594h-4.26v8.518h4.26v-8.518Z" fill="#231E2B"/><path d="M63.89 42.594h-4.26v8.518h4.26v-8.518Z" fill="#F7FEFF"/><path d="M59.631 42.594h-4.259v8.518h4.26v-8.518Z" fill="#231E2B"/><path d="M34.075 42.594h-4.26v4.26h4.26v-4.26Z" fill="#C2751D"/><path d="M21.296 42.594h-4.259v4.26h4.26v-4.26Z" fill="#F5F38E"/><path d="M8.518 42.594h-4.26v8.518h4.26v-8.518Z" fill="#F7FEFF"/><path d="M29.815 38.334h-4.26v4.26h4.26v-4.26Z" fill="#C2751D"/><path d="M8.518 25.555h-4.26v17.037h4.26V25.555ZM63.89 25.555h-4.26v17.037h4.26V25.555Z" fill="#231E2B"/><path d="M4.26 25.555H0v17.037h4.26V25.555Z" fill="#F7FEFF"/><path d="M42.593 29.814h-4.259v4.26h4.26v-4.26Z" fill="#F5F38E"/><path d="M68.15 25.555h-4.26v17.037h4.26V25.555Z" fill="#F7FEFF"/><path d="M51.11 25.555h-4.258v4.259h4.259v-4.26Z" fill="#C2751D"/><path d="M38.334 25.555h-4.26v4.259h4.26v-4.26Z" fill="#F5F38E"/><path d="M34.074 25.555h-4.259v4.259h-4.26v8.519h4.26v4.259h8.519v-4.26h4.259v-4.259h-4.26v-4.259h-4.259v-4.26Z" fill="#E2B436"/><path d="M63.89 17.037h-4.26v8.519h4.26v-8.519Z" fill="#F7FEFF"/><path d="M55.37 21.296h-4.258v-4.259h-8.52v4.26h4.26v4.259h4.26v17.037h-4.26v4.26h-4.26v4.259h-8.518v4.259h-8.518v4.26h17.037v-4.26h8.519v-4.26h4.259v-8.518h4.26V25.556h-4.26v-4.26Z" fill="#E2B436"/><path d="M46.852 21.297h-4.26v4.26h4.26v-4.26Z" fill="#C2751D"/><path d="M34.074 21.296v-4.259h-8.518v4.26h-4.26v4.259h-4.259v17.037h4.26v4.26h4.259v4.259h17.037v-4.26h4.26v-4.259h4.259V29.815h-4.26v-4.26h-4.259v-4.259h-8.519Zm8.519 8.52v8.518h-4.26v4.259h-4.259v4.26h-4.259v-4.26h-4.26V29.815h4.26v-4.26h8.519v4.26h4.259Z" fill="#CF8934"/><path d="M12.778 17.037h-4.26v8.519h4.26v-8.519Z" fill="#231E2B"/><path d="M8.518 17.037h-4.26v8.519h4.26v-8.519Z" fill="#F7FEFF"/><path d="M59.631 17.037h-4.259v8.519h4.26v-8.519Z" fill="#231E2B"/><path d="M55.37 17.037h-4.259v4.26h4.26v-4.26Z" fill="#F5F38E"/><path d="M42.593 17.037h-8.519v4.26h8.519v-4.26Z" fill="#C2751D"/><path d="M59.631 12.777h-4.259v4.26h4.26v-4.26Z" fill="#F7FEFF"/><path d="M55.37 12.777h-4.259v4.26h4.26v-4.26Z" fill="#231E2B"/><path d="M51.111 12.777h-8.518v4.26h8.518v-4.26Z" fill="#F5F38E"/><path d="M17.037 12.777h-4.26v4.26h4.26v-4.26Z" fill="#231E2B"/><path d="M12.778 12.777h-4.26v4.26h4.26v-4.26ZM55.37 8.518h-4.259v4.259h4.26v-4.26Z" fill="#F7FEFF"/><path d="M51.111 8.518h-8.518v4.259h8.518v-4.26Z" fill="#231E2B"/><path d="M42.593 8.518h-8.519v4.259h8.519v-4.26Z" fill="#F5F38E"/><path d="M25.556 8.518h-8.519v4.259h8.519v-4.26Z" fill="#231E2B"/><path d="M17.037 8.518h-4.26v4.259h4.26v-4.26ZM51.111 4.26h-8.518v4.26h8.518V4.26Z" fill="#F7FEFF"/><path d="M42.593 4.26H25.556v4.26h17.037V4.26Z" fill="#231E2B"/><path d="M25.556 4.26h-8.519v4.26h8.519V4.26ZM42.593 0H25.556v4.26h17.037V0Z" fill="#F7FEFF"/></svg>