<svg width="833" height="793" viewBox="0 0 833 793" fill="none" xmlns="http://www.w3.org/2000/svg">
<g clip-path="url(#clip0_2040_5323)">
<path d="M462.734 233.198H369.329V256.51H462.734V233.198Z" fill="#CC6F2D"/>
<path d="M509.321 256.588H462.657V279.9H509.321V256.588Z" fill="#CC6F2D"/>
<path d="M532.729 279.9H509.397V303.212H532.729V279.9Z" fill="#CC6F2D"/>
<path d="M556.062 303.213H532.73V349.837H556.062V303.213Z" fill="#CC6F2D"/>
<path d="M579.394 349.837H556.062V443.163H579.394V349.837Z" fill="#CC6F2D"/>
<path d="M556.062 443.163H532.73V489.787H556.062V443.163Z" fill="#CC6F2D"/>
<path d="M532.729 489.787H509.397V513.099H532.729V489.787Z" fill="#CC6F2D"/>
<path d="M299.309 513.113H322.641V489.801H299.309V513.113Z" fill="#CC6F2D"/>
<path d="M275.954 489.768H299.286V443.143H275.954V489.768Z" fill="#CC6F2D"/>
<path d="M252.6 443.154H275.932V349.828H252.6V443.154Z" fill="#CC6F2D"/>
<path d="M275.954 349.838H299.286V303.214H275.954V349.838Z" fill="#CC6F2D"/>
<path d="M299.309 303.181H322.641V279.869H299.309V303.181Z" fill="#CC6F2D"/>
<path d="M322.672 279.847H369.336V256.535H322.672V279.847Z" fill="#CC6F2D"/>
<path d="M322.588 513.099H299.256V536.411H322.588V513.099Z" fill="#CC6F2D"/>
<path d="M345.921 536.411H322.589V559.723H345.921V536.411Z" fill="#CC6F2D"/>
<path d="M369.33 559.723H345.998V583.035H369.33V559.723Z" fill="#CC6F2D"/>
<path d="M369.33 583.113H345.998V606.425H369.33V583.113Z" fill="#CC6F2D"/>
<path d="M392.661 606.425H369.329V629.737H392.661V606.425Z" fill="#CC6F2D"/>
<path d="M532.729 513.099H509.397V536.411H532.729V513.099Z" fill="#CC6F2D"/>
<path d="M509.32 536.411H485.988V559.723H509.32V536.411Z" fill="#CC6F2D"/>
<path d="M485.989 559.723H462.657V606.347H485.989V559.723Z" fill="#CC6F2D"/>
<path d="M462.657 606.425H439.325V629.737H462.657V606.425Z" fill="#CC6F2D"/>
<path d="M462.734 653.05H369.329V676.362H462.734V653.05Z" fill="#BFBFBF"/>
<path d="M462.734 699.674H369.329V722.986H462.734V699.674Z" fill="#BFBFBF"/>
<path d="M462.734 746.375H369.329V769.687H462.734V746.375Z" fill="#BFBFBF"/>
<path d="M485.989 653.05H462.657V699.674H485.989V653.05Z" fill="#BFBFBF"/>
<path d="M369.33 676.361H345.998V699.673H369.33V676.361Z" fill="#BFBFBF"/>
<path d="M485.989 722.985H462.657V746.297H485.989V722.985Z" fill="#BFBFBF"/>
<path d="M462.657 653.049H485.989V629.737H462.657H369.33H345.998V676.361H369.33V653.049H462.657Z" fill="#141414"/>
<path d="M462.735 676.361H369.33V699.673H462.735V676.361Z" fill="#141414"/>
<path d="M439.325 769.688H392.661V793H439.325V769.688Z" fill="#141414"/>
<path d="M369.33 699.674H345.998V746.376H369.33H462.657V722.986H369.33V699.674Z" fill="#141414"/>
<path d="M485.989 699.674H462.657V722.986H485.989V699.674Z" fill="#141414"/>
<path d="M532.731 349.837V373.149H509.399V396.461H485.99V443.163H439.326V489.787H369.331V513.099H345.999H322.589V536.411H345.999V559.724H369.331V606.426H392.662V629.738H439.326V606.426H462.658V559.724H485.99V536.411H509.399V489.787H532.731V443.163H556.063V396.461V373.149V349.837H532.731Z" fill="#EB9E23"/>
<path d="M439.403 303.213H345.998V373.149H439.403V303.213Z" fill="#FCF7C2"/>
<path d="M509.398 279.901H462.734V256.589H439.325H369.329V279.901H322.666V303.213H299.334V349.837H276.002V373.149V396.461V419.773V443.085H299.334V466.397V489.71H322.666V513.022H369.329V489.71H439.325V443.085H485.988V396.461H509.32V373.149H532.652V349.837V326.525V303.213H509.32V279.901H509.398ZM369.329 303.213H439.325V373.149H345.997V303.213H369.329Z" fill="#FCE829"/>
<path d="M427.619 0H404.287V209.887H427.619V0Z" fill="#FCE829"/>
<path d="M704.089 92.3529L555.553 240.764L572.051 257.248L720.587 108.837L704.089 92.3529Z" fill="#FCE829"/>
<path d="M833 355.139H622.936V378.451H833V355.139Z" fill="#FCE829"/>
<path d="M612.021 478.83L595.523 495.313L744.06 643.724L760.558 627.24L612.021 478.83Z" fill="#FCE829"/>
<path d="M128.885 94.852L112.387 111.336L260.923 259.747L277.421 243.263L128.885 94.852Z" fill="#FCE829"/>
<path d="M210.064 357.634H0V380.946H210.064V357.634Z" fill="#FCE829"/>
<path d="M220.995 481.36L72.459 629.771L88.9569 646.254L237.493 497.844L220.995 481.36Z" fill="#FCE829"/>
</g>
<defs>
<clipPath id="clip0_2040_5323">
<rect width="833" height="793" fill="white"/>
</clipPath>
</defs>
</svg>
