<svg width="327" height="560" viewBox="0 0 327 560" fill="none" xmlns="http://www.w3.org/2000/svg">
<g clip-path="url(#clip0_2040_2094)">
<path d="M210.27 0H116.808V23.3236H210.27V0Z" fill="#BFBFBF"/>
<path d="M256.884 23.3232H210.192V46.6468H256.884V23.3232Z" fill="#BFBFBF"/>
<path d="M280.308 46.6475H256.962V69.971H280.308V46.6475Z" fill="#BFBFBF"/>
<path d="M303.655 69.9707H280.309V116.618H303.655V69.9707Z" fill="#BFBFBF"/>
<path d="M327 116.696H303.654V210.069H327V116.696Z" fill="#BFBFBF"/>
<path d="M303.655 209.99H280.309V256.637H303.655V209.99Z" fill="#BFBFBF"/>
<path d="M280.308 256.716H256.962V280.039H280.308V256.716Z" fill="#BFBFBF"/>
<path d="M46.7487 279.984H70.0947V256.661H46.7487V279.984Z" fill="#BFBFBF"/>
<path d="M23.3796 256.706H46.7256L46.7256 210.059H23.3796L23.3796 256.706Z" fill="#BFBFBF"/>
<path d="M0.0114326 209.99H23.3574L23.3574 116.618H0.0114326L0.0114326 209.99Z" fill="#BFBFBF"/>
<path d="M23.3796 116.708H46.7256L46.7256 70.0608H23.3796L23.3796 116.708Z" fill="#BFBFBF"/>
<path d="M46.7487 70.0254H70.0947V46.7018H46.7487V70.0254Z" fill="#BFBFBF"/>
<path d="M70.1274 46.6807L116.819 46.6807V23.3571L70.1274 23.3571V46.6807Z" fill="#BFBFBF"/>
<path d="M70.0384 280.039H46.6924V303.363H70.0384V280.039Z" fill="#BFBFBF"/>
<path d="M93.3851 303.362H70.0391V326.686H93.3851V303.362Z" fill="#BFBFBF"/>
<path d="M116.809 326.687H93.4629V350.01H116.809V326.687Z" fill="#BFBFBF"/>
<path d="M116.809 350.01H93.4629V373.333H116.809V350.01Z" fill="#BFBFBF"/>
<path d="M140.154 373.333H116.808V396.657H140.154V373.333Z" fill="#BFBFBF"/>
<path d="M280.308 280.039H256.962V303.363H280.308V280.039Z" fill="#BFBFBF"/>
<path d="M256.884 303.362H233.538V326.686H256.884V303.362Z" fill="#BFBFBF"/>
<path d="M233.538 326.687H210.192V373.334H233.538V326.687Z" fill="#BFBFBF"/>
<path d="M210.193 373.333H186.847V396.657H210.193V373.333Z" fill="#BFBFBF"/>
<path d="M210.27 420.059H116.808V443.382H210.27V420.059Z" fill="#BFBFBF"/>
<path d="M210.27 466.706H116.808V490.03H210.27V466.706Z" fill="#BFBFBF"/>
<path d="M210.27 513.353H116.808V536.676H210.27V513.353Z" fill="#BFBFBF"/>
<path d="M233.538 420.059H210.192V466.706H233.538V420.059Z" fill="#BFBFBF"/>
<path d="M116.809 443.382H93.4629V466.705H116.809V443.382Z" fill="#BFBFBF"/>
<path d="M233.538 490.029H210.192V513.353H233.538V490.029Z" fill="#BFBFBF"/>
<path d="M210.193 420.059H233.539V396.657H210.193H116.809H93.4629V443.382H116.809V420.059H210.193Z" fill="#141414"/>
<path d="M210.272 443.383H116.81V466.706H210.272V443.383Z" fill="#141414"/>
<path d="M186.846 536.677H140.154V560H186.846V536.677Z" fill="#141414"/>
<path d="M116.809 466.706H93.4629V513.353H116.809H210.193V490.03H116.809V466.706Z" fill="#141414"/>
<path d="M233.538 466.706H210.192V490.03H233.538V466.706Z" fill="#141414"/>
<path d="M280.309 116.696V140.02H256.963V163.343H233.539V209.991H186.847V256.716H116.809V280.039H93.4631H70.0391V303.363H93.4631V326.686H116.809V373.334H140.155V396.657H186.847V373.334H210.193V326.686H233.539V303.363H256.963V256.716H280.309V209.991H303.655V163.343V140.02V116.696H280.309Z" fill="#D4D4D4"/>
<path d="M186.925 69.9707H93.4629V139.941H186.925V69.9707Z" fill="#FCFCFC"/>
<path d="M256.962 46.6468H210.27V23.3232H186.924H116.886V46.6468H70.0377V69.9704H46.6917V116.618H23.3457V139.941V163.265V186.588V209.912H46.6917V233.235V256.559H70.0377V280.039H116.73V256.715H186.768V210.068H233.46V163.421H256.806V140.097H280.308V116.774V93.45V69.9704H256.962V46.6468ZM116.808 69.9704H186.846V139.941H93.4618V69.9704H116.808Z" fill="#E8E8E8"/>
</g>
<defs>
<clipPath id="clip0_2040_2094">
<rect width="327" height="560" fill="white"/>
</clipPath>
</defs>
</svg>
