<svg fill="none" xmlns="http://www.w3.org/2000/svg" viewBox="0 0 52 70"><path d="M39 64.998h-8.667v4.333H39v-4.333ZM21.667 64.998H13v4.333h8.667v-4.333Z" fill="#F7FEFF"/><path d="M30.334 60.666h-8.667v4.333h8.667v-4.333Z" fill="#F7FEFF"/><path d="M17.333 60.667V43.334H13v21.667h8.667v-4.334h-4.334ZM39 43.334h-4.334v17.333h-4.333v4.334H39V43.334Z" fill="#231E2B"/><path d="M34.666 56.332h-4.333v4.333h4.333v-4.333Z" fill="#CF6B55"/><path d="M30.334 56.332h-8.667v4.333h8.667v-4.333Z" fill="#231E2B"/><path d="M21.667 56.332h-4.333v4.333h4.333v-4.333Z" fill="#CF6B55"/><path d="M13 43.334H8.667v21.667H13V43.334Z" fill="#F7FEFF"/><path d="M30.334 52h-8.667v4.333h8.667V52Z" fill="#CF6B55"/><path d="M17.334 47.668v8.667h4.333V52h8.667v4.334h4.333v-8.667H17.334Z" fill="#B0392E"/><path d="M43.333 43.334H39v21.667h4.333V43.334Z" fill="#F7FEFF"/><path d="M34.667 43.334H17.334v4.333h17.333v-4.333Z" fill="#892727"/><path d="M47.666 38.998h-4.333v4.333h4.333v-4.333Z" fill="#F7FEFF"/><path d="M43.333 38.998H39v4.333h4.333v-4.333Z" fill="#231E2B"/><path d="M39 38.998H13v4.333h26v-4.333Z" fill="#CF8934"/><path d="M13 38.998H8.667v4.333H13v-4.333Z" fill="#231E2B"/><path d="M8.666 38.998H4.333v4.333h4.333v-4.333Z" fill="#F7FEFF"/><path d="M43.333 34.666H39v4.333h4.333v-4.333ZM13 34.666H8.667v4.333H13v-4.333Z" fill="#CF8934"/><path d="M8.666 13.002H4.333v26h4.333v-26Z" fill="#231E2B"/><path d="M30.334 30.334v-13h-8.667v4.333h-4.333v4.334h4.333v4.333h-4.333v4.333h17.333v-4.333h-4.333Z" fill="#C2751D"/><path d="M4.333 13.002H0v26h4.333v-26ZM52 13.002h-4.334v26h4.333v-26Z" fill="#F7FEFF"/><path d="M47.666 13.002h-4.333v26h4.333v-26Z" fill="#231E2B"/><path d="M43.333 13.002H39v4.333h4.333v-4.333Z" fill="#F5F38E"/><path d="M13 13.002v4.333H8.667V34.67H13v4.333h26v-4.333h4.334V17.335H39v-4.333H13Zm4.334 21.667v-4.334h4.333v-4.333h-4.333v-4.333h4.333v-4.334h8.667v13h4.333v4.334H17.334Z" fill="#E2B436"/><path d="M13 13.002H8.667v4.333H13v-4.333Z" fill="#F5F38E"/><path d="M47.666 8.666h-4.333v4.333h4.333V8.666Z" fill="#F7FEFF"/><path d="M43.333 8.666H39v4.333h4.333V8.666Z" fill="#231E2B"/><path d="M39 8.666H13v4.333h26V8.666Z" fill="#F5F38E"/><path d="M13 8.666H8.667v4.333H13V8.666Z" fill="#231E2B"/><path d="M8.666 8.666H4.333v4.333h4.333V8.666ZM43.333 4.332H39v4.333h4.333V4.332Z" fill="#F7FEFF"/><path d="M39 4.332H13v4.333h26V4.332Z" fill="#231E2B"/><path d="M13 4.332H8.667v4.333H13V4.332ZM39 0H13v4.333h26V0Z" fill="#F7FEFF"/></svg>