<svg fill="none" xmlns="http://www.w3.org/2000/svg" viewBox="0 0 70 71"><path d="M56.875 65.627h-43.75v4.375h43.75v-4.375Z" fill="#F7FEFF"/><path d="M56.875 48.125H52.5V61.25h-35V48.125h-4.375v17.5h43.75v-17.5Z" fill="#231E2B"/><path d="M35 56.875h-4.375v4.375H35v-4.375Z" fill="#47414D"/><path d="M13.124 48.125H8.75v17.5h4.375v-17.5ZM48.125 56.877H43.75v-4.375h-17.5v4.375h-4.375v-4.375H17.5v8.75h13.125v-4.375H35v4.375h17.5v-8.75h-4.375v4.375Z" fill="#F7FEFF"/><path d="M48.126 52.502h-4.375v4.375h4.375v-4.375ZM26.251 52.502h-4.375v4.375h4.375v-4.375Z" fill="#47414D"/><path d="M61.251 48.125h-4.375v17.5h4.375v-17.5Z" fill="#F7FEFF"/><path d="M52.501 48.125H39.376V52.5h13.125v-4.375ZM30.625 48.125H17.5V52.5h13.125v-4.375Z" fill="#CF8934"/><path d="M26.25 48.125V43.75h-4.375V35H17.5v4.375h-4.375v8.75H26.25Z" fill="#892727"/><path d="M13.124 39.375H8.75v8.75h4.375v-8.75Z" fill="#231E2B"/><path d="M65.626 39.375h-4.375v8.75h4.375v-8.75Z" fill="#F7FEFF"/><path d="M61.251 39.375h-4.375v8.75h4.375v-8.75Z" fill="#231E2B"/><path d="M8.75 39.375H4.375v8.75H8.75v-8.75Z" fill="#F7FEFF"/><path d="M61.251 35h-4.375v4.375h4.375V35ZM52.501 35h-4.375v8.75h-4.375v4.375h13.125v-8.75h-4.375V35Z" fill="#892727"/><path d="M48.126 35h-4.375v4.375h4.375V35Z" fill="#F5F38E"/><path d="M43.751 35.002h-8.75v-4.375h-8.75v4.375h-4.375v8.75h4.375v4.375h4.375v4.375h8.75v-4.375h4.375v-4.375h4.375v-4.375h-4.375v-4.375Z" fill="#E2B436"/><path d="M17.5 35.002h4.374v-4.375h4.375v-4.375h4.375v-4.375H26.25v-4.375h-4.375v4.375h-8.75v4.375H8.75v8.75h4.375v4.375H17.5v-4.375Z" fill="#B0392E"/><path d="M13.124 35H8.75v4.375h4.375V35Z" fill="#892727"/><path d="M8.75 21.875H4.375v17.5H8.75v-17.5ZM65.626 21.875h-4.375v17.5h4.375v-17.5Z" fill="#231E2B"/><path d="M48.126 30.627h-4.375v4.375h4.375v-4.375Z" fill="#892727"/><path d="M43.75 30.627H35v4.375h8.75v-4.375Z" fill="#F5F38E"/><path d="M26.251 30.627h-4.375v4.375h4.375v-4.375Z" fill="#892727"/><path d="M4.375 21.875H0v17.5h4.375v-17.5Z" fill="#F7FEFF"/><path d="M43.751 26.25h-4.375v4.375h4.375V26.25ZM30.626 26.25h-4.375v4.375h4.375V26.25Z" fill="#892727"/><path d="M70 21.875h-4.375v17.5H70v-17.5Z" fill="#F7FEFF"/><path d="M61.251 21.875h-4.375v4.375h4.375v-4.375Z" fill="#CF6B55"/><path d="M56.876 21.877h-8.75v-4.375h-4.375v4.375h-4.375v4.375h4.375v4.375h4.375v4.375h4.375v4.375h4.375v-4.375h4.375v-8.75h-4.375v-4.375Z" fill="#B0392E"/><path d="M13.124 21.875H8.75v4.375h4.375v-4.375Z" fill="#CF6B55"/><path d="M65.626 17.502h-4.375v4.375h4.375v-4.375Z" fill="#F7FEFF"/><path d="M61.251 17.502h-4.375v4.375h4.375v-4.375Z" fill="#231E2B"/><path d="M56.875 17.502h-8.75v4.375h8.75v-4.375Z" fill="#CF6B55"/><path d="M43.751 17.502h-4.375v4.375h4.375v-4.375Z" fill="#892727"/><path d="M39.375 17.502h-8.75v13.125h8.75V17.502Z" fill="#CF8934"/><path d="M30.626 17.502h-4.375v4.375h4.375v-4.375Z" fill="#892727"/><path d="M21.875 17.502h-8.75v4.375h8.75v-4.375Z" fill="#CF6B55"/><path d="M13.124 17.502H8.75v4.375h4.375v-4.375Z" fill="#231E2B"/><path d="M8.75 17.502H4.375v4.375H8.75v-4.375ZM61.251 13.125h-4.375V17.5h4.375v-4.375Z" fill="#F7FEFF"/><path d="M56.876 13.125H43.751V17.5h13.125v-4.375Z" fill="#231E2B"/><path d="M43.751 13.125h-4.375V17.5h4.375v-4.375Z" fill="#F5F38E"/><path d="M39.376 17.5v-4.375h-4.375V8.75h-4.375v4.375h-4.375V17.5h13.125Z" fill="#E2B436"/><path d="M26.25 13.125H13.125V17.5H26.25v-4.375Z" fill="#231E2B"/><path d="M13.124 13.125H8.75V17.5h4.375v-4.375ZM56.876 8.75H43.751v4.375h13.125V8.75Z" fill="#F7FEFF"/><path d="M43.751 8.75h-4.375v4.375h4.375V8.75Z" fill="#231E2B"/><path d="M39.375 8.75H35v4.375h4.375V8.75Z" fill="#F5F38E"/><path d="M30.626 8.75h-4.375v4.375h4.375V8.75Z" fill="#231E2B"/><path d="M26.25 8.75H13.125v4.375H26.25V8.75ZM43.751 4.375h-4.375V8.75h4.375V4.375Z" fill="#F7FEFF"/><path d="M39.375 4.375h-8.75V8.75h8.75V4.375Z" fill="#231E2B"/><path d="M30.626 4.375h-4.375V8.75h4.375V4.375ZM39.375 0h-8.75v4.375h8.75V0Z" fill="#F7FEFF"/></svg>