<svg viewBox="0 0 87 109" fill="none" xmlns="http://www.w3.org/2000/svg"><path d="M25.63 55.754h2.512v2.515H25.63v-2.515Z" fill="#fff"/><path d="M25.63 53.246h2.512v2.51H25.63v-2.51ZM25.63 50.732h2.512v2.51H25.63v-2.51ZM25.63 48.22h2.512v2.51H25.63v-2.51Z" fill="#fff"/><path d="M25.63 45.709h2.512v2.515H25.63v-2.515ZM28.142 58.27h2.516v2.509h-2.517v-2.51ZM28.142 55.754h2.516v2.515h-2.517v-2.515Z" fill="#fff"/><path d="M28.142 53.246h2.516v2.51h-2.517v-2.51ZM28.142 50.732h2.516v2.51h-2.517v-2.51ZM28.142 48.22h2.516v2.51h-2.517v-2.51Z" fill="#fff"/><path d="M28.142 45.709h2.516v2.515h-2.517v-2.515ZM28.142 43.2h2.516v2.509h-2.517v-2.51ZM30.658 60.78h2.512v2.509h-2.512v-2.51ZM30.658 58.27h2.512v2.509h-2.512v-2.51ZM30.658 55.754h2.512v2.515h-2.512v-2.515Z" fill="#fff"/><path d="M30.658 53.246h2.512v2.51h-2.512v-2.51ZM30.658 50.732h2.512v2.51h-2.512v-2.51ZM30.658 48.22h2.512v2.51h-2.512v-2.51Z" fill="#fff"/><path d="M30.658 45.709h2.512v2.515h-2.512v-2.515ZM30.658 43.2h2.512v2.509h-2.512v-2.51ZM30.658 40.684h2.512v2.509h-2.512v-2.51Z" fill="#fff"/><path d="M30.658 38.174h2.512v2.51h-2.512v-2.51ZM30.658 35.658h2.512v2.515h-2.512v-2.515ZM30.658 33.145h2.512v2.509h-2.512v-2.51Z" fill="#fff"/><path d="M30.658 30.635h2.512v2.51h-2.512v-2.51Z" fill="#fff"/><path d="M30.658 28.121h2.512v2.515h-2.512V28.12ZM33.175 60.78h2.512v2.509h-2.512v-2.51ZM33.175 58.27h2.512v2.509h-2.512v-2.51ZM33.175 55.754h2.512v2.515h-2.512v-2.515Z" fill="#fff"/><path d="M33.175 53.246h2.512v2.51h-2.512v-2.51ZM33.175 50.732h2.512v2.51h-2.512v-2.51ZM33.175 48.22h2.512v2.51h-2.512v-2.51Z" fill="#fff"/><path d="M33.175 45.709h2.512v2.515h-2.512v-2.515ZM33.175 43.2h2.512v2.509h-2.512v-2.51ZM33.175 40.684h2.512v2.509h-2.512v-2.51Z" fill="#fff"/><path d="M33.175 38.174h2.512v2.51h-2.512v-2.51ZM33.175 35.658h2.512v2.515h-2.512v-2.515ZM33.175 33.145h2.512v2.509h-2.512v-2.51Z" fill="#fff"/><path d="M33.175 30.635h2.512v2.51h-2.512v-2.51Z" fill="#fff"/><path d="M33.175 28.121h2.512v2.515h-2.512V28.12Z" fill="#fff"/><path d="M33.175 25.611h2.512v2.51h-2.512v-2.51ZM35.687 60.78h2.511v2.509h-2.511v-2.51ZM35.687 58.27h2.511v2.509h-2.511v-2.51ZM35.687 55.754h2.511v2.515h-2.511v-2.515Z" fill="#fff"/><path d="M35.687 53.246h2.511v2.51h-2.511v-2.51ZM35.687 50.732h2.511v2.51h-2.511v-2.51ZM35.687 48.22h2.511v2.51h-2.511v-2.51Z" fill="#fff"/><path d="M35.687 45.709h2.511v2.515h-2.511v-2.515ZM35.687 43.2h2.511v2.509h-2.511v-2.51ZM35.687 40.684h2.511v2.509h-2.511v-2.51Z" fill="#fff"/><path d="M35.687 38.174h2.511v2.51h-2.511v-2.51ZM35.687 35.658h2.511v2.515h-2.511v-2.515ZM35.687 33.145h2.511v2.509h-2.511v-2.51Z" fill="#fff"/><path d="M35.687 30.635h2.511v2.51h-2.511v-2.51Z" fill="#fff"/><path d="M35.687 28.121h2.511v2.515h-2.511V28.12Z" fill="#fff"/><path d="M35.687 25.611h2.511v2.51h-2.511v-2.51ZM38.198 60.78h2.517v2.509h-2.517v-2.51ZM38.198 58.27h2.517v2.509h-2.517v-2.51ZM38.198 55.754h2.517v2.515h-2.517v-2.515Z" fill="#fff"/><path d="M38.198 53.246h2.517v2.51h-2.517v-2.51ZM38.198 50.732h2.517v2.51h-2.517v-2.51ZM38.198 48.22h2.517v2.51h-2.517v-2.51Z" fill="#fff"/><path d="M38.198 45.709h2.517v2.515h-2.517v-2.515ZM38.198 43.2h2.517v2.509h-2.517v-2.51ZM38.198 40.684h2.517v2.509h-2.517v-2.51Z" fill="#fff"/><path d="M38.198 38.174h2.517v2.51h-2.517v-2.51ZM38.198 35.658h2.517v2.515h-2.517v-2.515ZM38.198 33.145h2.517v2.509h-2.517v-2.51Z" fill="#fff"/><path d="M38.198 30.635h2.517v2.51h-2.517v-2.51Z" fill="#fff"/><path d="M38.198 28.121h2.517v2.515h-2.517V28.12Z" fill="#fff"/><path d="M38.198 25.611h2.517v2.51h-2.517v-2.51ZM40.715 60.78h2.512v2.509h-2.512v-2.51ZM40.715 58.27h2.512v2.509h-2.512v-2.51ZM40.715 55.754h2.512v2.515h-2.512v-2.515Z" fill="#fff"/><path d="M40.715 53.246h2.512v2.51h-2.512v-2.51ZM40.715 50.732h2.512v2.51h-2.512v-2.51ZM40.715 48.22h2.512v2.51h-2.512v-2.51Z" fill="#fff"/><path d="M40.715 45.709h2.512v2.515h-2.512v-2.515ZM40.715 43.2h2.512v2.509h-2.512v-2.51ZM40.715 40.684h2.512v2.509h-2.512v-2.51Z" fill="#fff"/><path d="M40.715 38.174h2.512v2.51h-2.512v-2.51ZM40.715 35.658h2.512v2.515h-2.512v-2.515ZM40.715 33.145h2.512v2.509h-2.512v-2.51Z" fill="#fff"/><path d="M40.715 30.635h2.512v2.51h-2.512v-2.51Z" fill="#fff"/><path d="M40.715 28.121h2.512v2.515h-2.512V28.12Z" fill="#fff"/><path d="M40.715 25.611h2.512v2.51h-2.512v-2.51ZM43.233 60.78h2.511v2.509h-2.511v-2.51ZM43.233 58.27h2.511v2.509h-2.511v-2.51ZM43.233 55.754h2.511v2.515h-2.511v-2.515Z" fill="#fff"/><path d="M43.233 53.246h2.511v2.51h-2.511v-2.51ZM43.233 50.732h2.511v2.51h-2.511v-2.51ZM43.233 48.22h2.511v2.51h-2.511v-2.51Z" fill="#fff"/><path d="M43.233 45.709h2.511v2.515h-2.511v-2.515ZM43.233 43.2h2.511v2.509h-2.511v-2.51ZM43.233 40.684h2.511v2.509h-2.511v-2.51Z" fill="#fff"/><path d="M43.233 38.174h2.511v2.51h-2.511v-2.51ZM43.233 35.658h2.511v2.515h-2.511v-2.515ZM43.233 33.145h2.511v2.509h-2.511v-2.51Z" fill="#fff"/><path d="M43.233 30.635h2.511v2.51h-2.511v-2.51Z" fill="#fff"/><path d="M43.233 28.121h2.511v2.515h-2.511V28.12Z" fill="#fff"/><path d="M43.233 25.611h2.511v2.51h-2.511v-2.51ZM45.743 60.78h2.512v2.509h-2.512v-2.51ZM45.743 58.27h2.512v2.509h-2.512v-2.51ZM45.743 55.754h2.512v2.515h-2.512v-2.515Z" fill="#fff"/><path d="M45.743 53.246h2.512v2.51h-2.512v-2.51ZM45.743 50.732h2.512v2.51h-2.512v-2.51ZM45.743 48.22h2.512v2.51h-2.512v-2.51Z" fill="#fff"/><path d="M45.743 45.709h2.512v2.515h-2.512v-2.515ZM45.743 43.2h2.512v2.509h-2.512v-2.51ZM45.743 40.684h2.512v2.509h-2.512v-2.51Z" fill="#fff"/><path d="M45.743 38.174h2.512v2.51h-2.512v-2.51ZM45.743 35.658h2.512v2.515h-2.512v-2.515ZM45.743 33.145h2.512v2.509h-2.512v-2.51Z" fill="#fff"/><path d="M45.743 30.635h2.512v2.51h-2.512v-2.51Z" fill="#fff"/><path d="M45.743 28.121h2.512v2.515h-2.512V28.12Z" fill="#fff"/><path d="M45.743 25.611h2.512v2.51h-2.512v-2.51ZM48.255 60.78h2.517v2.509h-2.517v-2.51ZM48.255 58.27h2.517v2.509h-2.517v-2.51ZM48.255 55.754h2.517v2.515h-2.517v-2.515Z" fill="#fff"/><path d="M48.255 53.246h2.517v2.51h-2.517v-2.51ZM48.255 50.732h2.517v2.51h-2.517v-2.51ZM48.255 48.22h2.517v2.51h-2.517v-2.51Z" fill="#fff"/><path d="M48.255 45.709h2.517v2.515h-2.517v-2.515ZM48.255 43.2h2.517v2.509h-2.517v-2.51ZM48.255 40.684h2.517v2.509h-2.517v-2.51Z" fill="#fff"/><path d="M48.255 38.174h2.517v2.51h-2.517v-2.51ZM48.255 35.658h2.517v2.515h-2.517v-2.515ZM48.255 33.145h2.517v2.509h-2.517v-2.51Z" fill="#fff"/><path d="M48.255 30.635h2.517v2.51h-2.517v-2.51Z" fill="#fff"/><path d="M48.255 28.121h2.517v2.515h-2.517V28.12Z" fill="#fff"/><path d="M48.255 25.611h2.517v2.51h-2.517v-2.51ZM50.777 60.78h2.511v2.509h-2.511v-2.51ZM50.777 58.27h2.511v2.509h-2.511v-2.51ZM50.777 55.754h2.511v2.515h-2.511v-2.515Z" fill="#fff"/><path d="M50.777 53.246h2.511v2.51h-2.511v-2.51ZM50.777 50.732h2.511v2.51h-2.511v-2.51ZM50.777 48.22h2.511v2.51h-2.511v-2.51Z" fill="#fff"/><path d="M50.777 45.709h2.511v2.515h-2.511v-2.515ZM50.777 43.2h2.511v2.509h-2.511v-2.51ZM50.777 40.684h2.511v2.509h-2.511v-2.51Z" fill="#fff"/><path d="M50.777 38.174h2.511v2.51h-2.511v-2.51ZM50.777 35.658h2.511v2.515h-2.511v-2.515ZM50.777 33.145h2.511v2.509h-2.511v-2.51Z" fill="#fff"/><path d="M50.777 30.635h2.511v2.51h-2.511v-2.51Z" fill="#fff"/><path d="M50.777 28.121h2.511v2.515h-2.511V28.12Z" fill="#fff"/><path d="M50.777 25.611h2.511v2.51h-2.511v-2.51ZM53.288 60.78H55.8v2.509h-2.512v-2.51ZM53.288 58.27H55.8v2.509h-2.512v-2.51ZM53.288 55.754H55.8v2.515h-2.512v-2.515Z" fill="#fff"/><path d="M53.288 53.246H55.8v2.51h-2.512v-2.51ZM53.288 50.732H55.8v2.51h-2.512v-2.51ZM53.288 48.22H55.8v2.51h-2.512v-2.51Z" fill="#fff"/><path d="M53.288 45.709H55.8v2.515h-2.512v-2.515ZM53.288 43.2H55.8v2.509h-2.512v-2.51ZM53.288 40.684H55.8v2.509h-2.512v-2.51Z" fill="#fff"/><path d="M53.288 38.174H55.8v2.51h-2.512v-2.51ZM53.288 35.658H55.8v2.515h-2.512v-2.515ZM53.288 33.145H55.8v2.509h-2.512v-2.51Z" fill="#fff"/><path d="M53.288 30.635H55.8v2.51h-2.512v-2.51Z" fill="#fff"/><path d="M53.288 28.121H55.8v2.515h-2.512V28.12ZM55.805 58.27h2.511v2.509h-2.511v-2.51ZM55.805 55.754h2.511v2.515h-2.511v-2.515Z" fill="#fff"/><path d="M55.805 53.246h2.511v2.51h-2.511v-2.51ZM55.805 50.732h2.511v2.51h-2.511v-2.51ZM55.805 48.22h2.511v2.51h-2.511v-2.51Z" fill="#fff"/><path d="M55.805 45.709h2.511v2.515h-2.511v-2.515ZM55.805 43.2h2.511v2.509h-2.511v-2.51ZM58.311 55.754h2.517v2.515h-2.517v-2.515Z" fill="#fff"/><path d="M58.311 53.246h2.517v2.51h-2.517v-2.51ZM58.311 50.732h2.517v2.51h-2.517v-2.51ZM58.311 48.22h2.517v2.51h-2.517v-2.51Z" fill="#fff"/><path d="M58.311 45.709h2.517v2.515h-2.517v-2.515Z" fill="#fff"/><path d="M10.539 50.73h2.517v2.51h-2.517v-2.51ZM10.539 55.756h2.517v2.514h-2.517v-2.514Z" fill="#F9AC46"/><path d="M10.539 58.27h2.517v2.509h-2.517v-2.51ZM10.539 60.78h2.517v2.509h-2.517v-2.51ZM10.539 63.293h2.517v2.51h-2.517v-2.51Z" fill="#F9AC46"/><path d="M10.539 65.803h2.517v2.514h-2.517v-2.514Z" fill="#C0C8CE"/><path d="M8.028 50.73h2.511v2.51H8.028v-2.51ZM8.028 55.756h2.511v2.514H8.028v-2.514Z" fill="#F9AC46"/><path d="M8.028 58.27h2.511v2.509H8.028v-2.51ZM8.028 60.78h2.511v2.509H8.028v-2.51ZM8.028 63.293h2.511v2.51H8.028v-2.51Z" fill="#F9AC46"/><path d="M8.028 65.803h2.511v2.514H8.028v-2.514Z" fill="#C0C8CE"/><path d="M5.516 50.73h2.511v2.51H5.516v-2.51Z" fill="#F9AC46"/><path d="M5.516 65.803h2.511v2.514H5.516v-2.514Z" fill="#C0C8CE"/><path d="M5.516 63.293h2.511v2.51H5.516v-2.51ZM5.516 60.78h2.511v2.509H5.516v-2.51ZM5.516 58.27h2.511v2.509H5.516v-2.51Z" fill="#F9AC46"/><path d="M5.516 55.756h2.511v2.514H5.516v-2.514ZM5.516 53.246h2.511v2.51H5.516v-2.51ZM8.028 53.246h2.511v2.51H8.028v-2.51ZM13.062 50.73h2.511v2.51h-2.511v-2.51Z" fill="#F9AC46"/><path d="M13.062 65.803h2.511v2.514h-2.511v-2.514Z" fill="#C0C8CE"/><path d="M13.062 63.293h2.511v2.51h-2.511v-2.51ZM13.062 60.78h2.511v2.509h-2.511v-2.51ZM13.062 58.27h2.511v2.509h-2.511v-2.51Z" fill="#F9AC46"/><path d="M13.062 55.756h2.511v2.514h-2.511v-2.514ZM13.062 53.246h2.511v2.51h-2.511v-2.51ZM10.539 53.246h2.517v2.51h-2.517v-2.51ZM13.062 48.223h2.511v2.51h-2.511v-2.51Z" fill="#F9AC46"/><path d="M15.573 48.223h2.512v2.51h-2.512v-2.51Z" fill="#C0C8CE"/><path d="M5.516 48.223h2.511v2.51H5.516v-2.51ZM8.028 48.223h2.511v2.51H8.028v-2.51Z" fill="#F9AC46"/><path d="M10.539 48.223h2.517v2.51h-2.517v-2.51Z" fill="#F9AC46"/><path d="M3 53.246h2.512v2.51H3v-2.51ZM3 68.318h2.512v2.51H3v-2.51ZM3 58.27h2.512v2.509H3v-2.51ZM3 48.223h2.512v2.51H3v-2.51ZM3 60.78h2.512v2.509H3v-2.51ZM3 63.293h2.512v2.51H3v-2.51Z" fill="#C0C8CE"/><path d="M3 50.73h2.512v2.51H3v-2.51ZM3 65.803h2.512v2.514H3v-2.514ZM3 55.756h2.512v2.514H3v-2.514ZM13.062 68.318h2.511v2.51h-2.511v-2.51ZM5.516 68.318h2.511v2.51H5.516v-2.51ZM8.028 68.318h2.511v2.51H8.028v-2.51Z" fill="#C0C8CE"/><path d="M10.539 68.318h2.517v2.51h-2.517v-2.51ZM18.09 65.803h2.51v2.514h-2.51v-2.514ZM15.573 53.246h2.512v2.51h-2.512v-2.51ZM15.573 68.318h2.512v2.51h-2.512v-2.51ZM15.573 65.803h2.512v2.514h-2.512v-2.514ZM15.573 58.27h2.512v2.509h-2.512v-2.51ZM15.573 60.78h2.512v2.509h-2.512v-2.51Z" fill="#C0C8CE"/><path d="M15.573 55.756h2.512v2.514h-2.512v-2.514ZM15.573 50.73h2.512v2.51h-2.512v-2.51ZM15.573 63.293h2.512v2.51h-2.512v-2.51ZM18.09 53.246h2.51v2.51h-2.51v-2.51ZM18.09 55.756h2.51v2.514h-2.51v-2.514ZM63.344 53.246h2.512v2.51h-2.512v-2.51ZM65.862 53.246h2.511v2.51h-2.511v-2.51Z" fill="#C0C8CE"/><path d="M70.889 53.246H73.4v2.51H70.89v-2.51ZM70.889 55.756H73.4v2.514H70.89v-2.514Z" fill="#F9AC46"/><path d="M70.889 58.27H73.4v2.509H70.89v-2.51ZM70.889 60.78H73.4v2.509H70.89v-2.51ZM70.889 63.293H73.4v2.51H70.89v-2.51ZM78.429 53.246h2.516v2.51H78.43v-2.51ZM78.429 55.756h2.516v2.514H78.43v-2.514Z" fill="#F9AC46"/><path d="M78.429 58.27h2.516v2.509H78.43v-2.51ZM78.429 60.78h2.516v2.509H78.43v-2.51ZM78.429 63.293h2.516v2.51H78.43v-2.51Z" fill="#F9AC46"/><path d="M78.429 65.803h2.516v2.514H78.43v-2.514Z" fill="#C0C8CE"/><path d="M75.917 53.246h2.512v2.51h-2.512v-2.51ZM75.917 55.756h2.512v2.514h-2.512v-2.514Z" fill="#F9AC46"/><path d="M75.917 58.27h2.512v2.509h-2.512v-2.51ZM75.917 60.78h2.512v2.509h-2.512v-2.51ZM75.917 63.293h2.512v2.51h-2.512v-2.51Z" fill="#F9AC46"/><path d="M75.917 65.803h2.512v2.514h-2.512v-2.514Z" fill="#C0C8CE"/><path d="M73.4 53.246h2.512v2.51h-2.511v-2.51ZM73.4 55.756h2.512v2.514h-2.511v-2.514Z" fill="#F9AC46"/><path d="M73.4 65.803h2.512v2.514h-2.511v-2.514Z" fill="#C0C8CE"/><path d="M73.4 63.293h2.512v2.51h-2.511v-2.51ZM73.4 60.78h2.512v2.509h-2.511v-2.51ZM73.4 58.27h2.512v2.509h-2.511v-2.51Z" fill="#F9AC46"/><path d="M80.945 48.223h2.512v2.51h-2.511v-2.51Z" fill="#C0C8CE"/><path d="M75.917 48.223h2.512v2.51h-2.512v-2.51ZM78.429 48.223h2.516v2.51H78.43v-2.51Z" fill="#F9AC46"/><path d="M68.367 48.223h2.517v2.51h-2.517v-2.51Z" fill="#C0C8CE"/><path d="M70.889 48.223H73.4v2.51H70.89v-2.51ZM73.4 48.223h2.512v2.51h-2.511v-2.51Z" fill="#F9AC46"/><path d="M80.945 55.756h2.512v2.514h-2.511v-2.514Z" fill="#C0C8CE"/><path d="M80.945 58.27h2.512v2.509h-2.511v-2.51ZM80.945 53.246h2.512v2.51h-2.511v-2.51ZM80.945 60.78h2.512v2.509h-2.511v-2.51ZM80.945 50.73h2.512v2.51h-2.511v-2.51ZM80.945 68.318h2.512v2.51h-2.511v-2.51ZM80.945 63.293h2.512v2.51h-2.511v-2.51ZM80.945 65.803h2.512v2.514h-2.511v-2.514Z" fill="#C0C8CE"/><path d="M75.917 50.73h2.512v2.51h-2.512v-2.51Z" fill="#F9AC46"/><path d="M75.917 68.318h2.512v2.51h-2.512v-2.51ZM78.429 68.318h2.516v2.51H78.43v-2.51Z" fill="#C0C8CE"/><path d="M78.429 50.73h2.516v2.51H78.43v-2.51Z" fill="#F9AC46"/><path d="M68.367 65.803h2.517v2.514h-2.517v-2.514ZM68.367 50.73h2.517v2.51h-2.517v-2.51ZM68.367 68.318h2.517v2.51h-2.517v-2.51ZM68.367 53.246h2.517v2.51h-2.517v-2.51ZM70.889 68.318H73.4v2.51H70.89v-2.51ZM70.889 65.803H73.4v2.514H70.89v-2.514Z" fill="#C0C8CE"/><path d="M70.889 50.73H73.4v2.51H70.89v-2.51Z" fill="#F9AC46"/><path d="M73.4 68.318h2.512v2.51h-2.511v-2.51Z" fill="#C0C8CE"/><path d="M73.4 50.73h2.512v2.51h-2.511v-2.51Z" fill="#F9AC46"/><path d="M65.862 65.803h2.511v2.514h-2.511v-2.514ZM68.367 60.78h2.517v2.509h-2.517v-2.51ZM68.367 63.293h2.517v2.51h-2.517v-2.51ZM68.367 58.27h2.517v2.509h-2.517v-2.51Z" fill="#C0C8CE"/><path d="M68.367 55.756h2.517v2.514h-2.517v-2.514Z" fill="#C0C8CE"/><path d="M65.862 55.756h2.511v2.514h-2.511v-2.514Z" fill="#C0C8CE"/><path d="M28.142 25.611h2.516v2.51h-2.517v-2.51ZM28.142 23.096h2.516v2.51h-2.517v-2.51Z" fill="#fff"/><path d="M28.142 20.588h2.516v2.51h-2.517v-2.51ZM28.142 18.072h2.516v2.515h-2.517v-2.515ZM30.657 85.904h2.512v2.515h-2.511v-2.515ZM30.657 83.39h2.512v2.51h-2.511v-2.51ZM30.657 80.88h2.512v2.51h-2.511v-2.51ZM30.657 78.367h2.512v2.51h-2.511v-2.51ZM30.657 75.852h2.512v2.514h-2.511v-2.514ZM30.657 73.342h2.512v2.51h-2.511v-2.51ZM30.657 70.828h2.512v2.51h-2.511v-2.51ZM30.657 25.611h2.512v2.51h-2.511v-2.51Z" fill="#fff"/><path d="M30.657 23.096h2.512v2.51h-2.511v-2.51Z" fill="#fff"/><path d="M30.657 20.588h2.512v2.51h-2.511v-2.51ZM33.175 88.414h2.512v2.51h-2.512v-2.51Z" fill="#fff"/><path d="M33.175 85.904h2.512v2.515h-2.512v-2.515ZM33.175 83.39h2.512v2.51h-2.512v-2.51ZM33.175 80.88h2.512v2.51h-2.512v-2.51ZM33.175 78.367h2.512v2.51h-2.512v-2.51ZM33.175 75.852h2.512v2.514h-2.512v-2.514ZM33.175 73.342h2.512v2.51h-2.512v-2.51ZM33.175 70.828h2.512v2.51h-2.512v-2.51ZM33.175 68.318h2.512v2.51h-2.512v-2.51ZM33.175 23.096h2.512v2.51h-2.512v-2.51ZM35.686 90.93h2.511v2.51h-2.511v-2.51Z" fill="#fff"/><path d="M35.686 88.414h2.511v2.51h-2.511v-2.51Z" fill="#fff"/><path d="M35.686 85.904h2.511v2.515h-2.511v-2.515ZM35.686 83.39h2.511v2.51h-2.511v-2.51ZM35.686 80.88h2.511v2.51h-2.511v-2.51ZM35.686 78.367h2.511v2.51h-2.511v-2.51ZM35.686 75.852h2.511v2.514h-2.511v-2.514ZM35.686 73.342h2.511v2.51h-2.511v-2.51ZM35.686 70.828h2.511v2.51h-2.511v-2.51ZM35.686 68.318h2.511v2.51h-2.511v-2.51ZM35.686 65.803h2.511v2.514h-2.511v-2.514Z" fill="#fff"/><path d="M35.686 63.293h2.511v2.51h-2.511v-2.51Z" fill="#E2D7D7"/><path d="M38.197 90.93h2.517v2.51h-2.517v-2.51ZM38.197 88.414h2.517v2.51h-2.517v-2.51Z" fill="#fff"/><path d="M38.197 85.904h2.517v2.515h-2.517v-2.515ZM38.197 83.39h2.517v2.51h-2.517v-2.51ZM38.197 80.88h2.517v2.51h-2.517v-2.51ZM38.197 78.367h2.517v2.51h-2.517v-2.51ZM38.197 75.852h2.517v2.514h-2.517v-2.514ZM38.197 73.342h2.517v2.51h-2.517v-2.51ZM38.197 70.828h2.517v2.51h-2.517v-2.51ZM38.197 68.318h2.517v2.51h-2.517v-2.51Z" fill="#fff"/><path d="M38.197 65.803h2.517v2.514h-2.517v-2.514ZM38.197 63.293h2.517v2.51h-2.517v-2.51Z" fill="#E2D7D7"/><path d="M40.714 90.93h2.512v2.51h-2.512v-2.51ZM40.714 88.414h2.512v2.51h-2.512v-2.51Z" fill="#fff"/><path d="M40.714 85.904h2.512v2.515h-2.512v-2.515ZM40.714 83.39h2.512v2.51h-2.512v-2.51ZM40.714 80.88h2.512v2.51h-2.512v-2.51ZM40.714 78.367h2.512v2.51h-2.512v-2.51ZM40.714 75.852h2.512v2.514h-2.512v-2.514ZM40.714 73.342h2.512v2.51h-2.512v-2.51ZM40.714 70.828h2.512v2.51h-2.512v-2.51ZM40.714 68.318h2.512v2.51h-2.512v-2.51Z" fill="#fff"/><path d="M40.714 65.803h2.512v2.514h-2.512v-2.514ZM40.714 63.293h2.512v2.51h-2.512v-2.51Z" fill="#E2D7D7"/><path d="M43.232 90.93h2.511v2.51h-2.511v-2.51ZM43.232 88.414h2.511v2.51h-2.511v-2.51Z" fill="#fff"/><path d="M43.232 85.904h2.511v2.515h-2.511v-2.515ZM43.232 83.39h2.511v2.51h-2.511v-2.51ZM43.232 80.88h2.511v2.51h-2.511v-2.51ZM43.232 78.367h2.511v2.51h-2.511v-2.51ZM43.232 75.852h2.511v2.514h-2.511v-2.514ZM43.232 73.342h2.511v2.51h-2.511v-2.51ZM43.232 70.828h2.511v2.51h-2.511v-2.51ZM43.232 68.318h2.511v2.51h-2.511v-2.51Z" fill="#fff"/><path d="M43.232 65.803h2.511v2.514h-2.511v-2.514ZM43.232 63.293h2.511v2.51h-2.511v-2.51Z" fill="#E2D7D7"/><path d="M45.742 90.93h2.512v2.51h-2.512v-2.51ZM45.742 88.414h2.512v2.51h-2.512v-2.51Z" fill="#fff"/><path d="M45.742 85.904h2.512v2.515h-2.512v-2.515ZM45.742 83.39h2.512v2.51h-2.512v-2.51ZM45.742 80.88h2.512v2.51h-2.512v-2.51ZM45.742 78.367h2.512v2.51h-2.512v-2.51ZM45.742 75.852h2.512v2.514h-2.512v-2.514ZM45.742 73.342h2.512v2.51h-2.512v-2.51ZM45.742 70.828h2.512v2.51h-2.512v-2.51ZM45.742 68.318h2.512v2.51h-2.512v-2.51Z" fill="#fff"/><path d="M45.742 65.803h2.512v2.514h-2.512v-2.514ZM45.742 63.293h2.512v2.51h-2.512v-2.51Z" fill="#E2D7D7"/><path d="M48.254 90.93h2.517v2.51h-2.517v-2.51ZM48.254 88.414h2.517v2.51h-2.517v-2.51Z" fill="#fff"/><path d="M48.254 85.904h2.517v2.515h-2.517v-2.515ZM48.254 83.39h2.517v2.51h-2.517v-2.51ZM48.254 80.88h2.517v2.51h-2.517v-2.51ZM48.254 78.367h2.517v2.51h-2.517v-2.51ZM48.254 75.852h2.517v2.514h-2.517v-2.514ZM48.254 73.342h2.517v2.51h-2.517v-2.51ZM48.254 70.828h2.517v2.51h-2.517v-2.51ZM48.254 68.318h2.517v2.51h-2.517v-2.51ZM48.254 65.803h2.517v2.514h-2.517v-2.514Z" fill="#fff"/><path d="M48.254 63.293h2.517v2.51h-2.517v-2.51Z" fill="#E2D7D7"/><path d="M50.776 88.414h2.511v2.51h-2.511v-2.51Z" fill="#fff"/><path d="M50.776 85.904h2.511v2.515h-2.511v-2.515ZM50.776 83.39h2.511v2.51h-2.511v-2.51ZM50.776 80.88h2.511v2.51h-2.511v-2.51ZM50.776 78.367h2.511v2.51h-2.511v-2.51ZM50.776 75.852h2.511v2.514h-2.511v-2.514ZM50.776 73.342h2.511v2.51h-2.511v-2.51ZM50.776 70.828h2.511v2.51h-2.511v-2.51ZM50.776 68.318h2.511v2.51h-2.511v-2.51ZM50.776 23.096h2.511v2.51h-2.511v-2.51Z" fill="#fff"/><path d="M53.287 85.904H55.8v2.515h-2.512v-2.515ZM53.287 83.39H55.8v2.51h-2.512v-2.51ZM53.287 80.88H55.8v2.51h-2.512v-2.51ZM53.287 78.367H55.8v2.51h-2.512v-2.51ZM53.287 75.852H55.8v2.514h-2.512v-2.514ZM53.287 73.342H55.8v2.51h-2.512v-2.51ZM53.287 70.828H55.8v2.51h-2.512v-2.51ZM53.287 25.611H55.8v2.51h-2.512v-2.51ZM53.287 23.096H55.8v2.51h-2.512v-2.51Z" fill="#fff"/><path d="M53.287 20.588H55.8v2.51h-2.512v-2.51ZM55.805 25.611h2.511v2.51h-2.511v-2.51ZM55.805 23.096h2.511v2.51h-2.511v-2.51Z" fill="#fff"/><path d="M55.805 20.588h2.511v2.51h-2.511v-2.51ZM55.805 18.072h2.511v2.515h-2.511v-2.515Z" fill="#fff"/><path d="M63.344 55.756h2.512v2.514h-2.512v-2.514Z" fill="#C0C8CE"/><path d="M10.539 50.73h2.517v2.51h-2.517v-2.51Z" fill="#FFF8F0"/><path d="M10.539 48.223h2.517v2.51h-2.517v-2.51ZM10.539 45.707h2.517v2.515h-2.517v-2.515Z" fill="#FFF8F0"/><path d="M8.028 50.73h2.511v2.51H8.028v-2.51ZM13.062 63.295h2.511v2.51h-2.511v-2.51ZM5.516 63.295h2.511v2.51H5.516v-2.51Z" fill="#FFBB69"/><path d="M5.516 60.78h2.511v2.509H5.516v-2.51Z" fill="#FFF8F0"/><path d="M10.539 58.27h2.517v2.509h-2.517v-2.51Z" fill="#FFBB69"/><path d="M3 68.316h2.51v2.51H3v-2.51Z" fill="#E6EBEF"/><path d="M3 65.805h2.51v2.514H3v-2.514ZM3 63.295h2.51v2.51H3v-2.51ZM3 60.78h2.51v2.509H3v-2.51ZM3 58.27h2.51v2.509H3v-2.51ZM3 55.754h2.51v2.515H3v-2.515Z" fill="#E6EBEF"/><path d="M3 53.246h2.51v2.51H3v-2.51ZM3 50.73h2.51v2.51H3v-2.51Z" fill="#E6EBEF"/><path d="M3 48.223h2.51v2.51H3v-2.51ZM5.516 68.316h2.511v2.51H5.516v-2.51Z" fill="#E6EBEF"/><path d="M5.516 65.805h2.511v2.514H5.516v-2.514Z" fill="#E6EBEF"/><path d="M5.516 58.27h2.511v2.509H5.516v-2.51Z" fill="#FFBB69"/><path d="M8.028 68.316h2.511v2.51H8.028v-2.51Z" fill="#E6EBEF"/><path d="M8.028 65.805h2.511v2.514H8.028v-2.514Z" fill="#E6EBEF"/><path d="M10.539 65.805h2.517v2.514h-2.517v-2.514Z" fill="#E6EBEF"/><path d="M13.062 65.805h2.511v2.514h-2.511v-2.514Z" fill="#C0C8CE"/><path d="M13.062 53.246h2.511v2.51h-2.511v-2.51Z" fill="#FFBB69"/><path d="M15.572 68.316h2.512v2.51h-2.511v-2.51Z" fill="#C0C8CE"/><path d="M15.572 65.805h2.512v2.514h-2.511v-2.514ZM15.572 63.295h2.512v2.51h-2.511v-2.51Z" fill="#C0C8CE"/><path d="M15.572 60.78h2.512v2.509h-2.511v-2.51ZM15.572 58.27h2.512v2.509h-2.511v-2.51ZM15.572 55.754h2.512v2.515h-2.511v-2.515Z" fill="#E6EBEF"/><path d="M15.572 53.246h2.512v2.51h-2.511v-2.51ZM15.572 50.73h2.512v2.51h-2.511v-2.51Z" fill="#E6EBEF"/><path d="M15.572 48.223h2.512v2.51h-2.511v-2.51Z" fill="#E6EBEF"/><path d="M18.09 63.295h2.51v2.51h-2.51v-2.51Z" fill="#fff"/><path d="M18.09 60.78h2.51v2.509h-2.51v-2.51ZM18.09 58.27h2.51v2.509h-2.51v-2.51Z" fill="#9E6CD8"/><path d="M20.596 65.805h2.516v2.514h-2.516v-2.514ZM20.596 63.295h2.516v2.51h-2.516v-2.51ZM20.596 60.78h2.516v2.509h-2.516v-2.51Z" fill="#fff"/><path d="M20.596 58.27h2.516v2.509h-2.516v-2.51Z" fill="#9E6CD8"/><path d="M23.118 68.316h2.512v2.51h-2.512v-2.51Z" fill="#fff"/><path d="M23.118 65.805h2.512v2.514h-2.512v-2.514ZM23.118 63.295h2.512v2.51h-2.512v-2.51ZM25.63 68.316h2.512v2.51H25.63v-2.51Z" fill="#fff"/><path d="M25.63 65.805h2.512v2.514H25.63v-2.514Z" fill="#fff"/><path d="M28.142 68.316h2.516v2.51h-2.517v-2.51Z" fill="#fff"/><path d="M28.142 65.805h2.516v2.514h-2.517v-2.514Z" fill="#fff"/><path d="M30.657 103.484h2.512v2.515h-2.511v-2.515Z" fill="#9E6CD8"/><path d="M30.657 100.977h2.512v2.509h-2.511v-2.509Z" fill="#9E6CD8"/><path d="M30.657 68.316h2.512v2.51h-2.511v-2.51Z" fill="#fff"/><path d="M30.657 65.805h2.512v2.514h-2.511v-2.514Z" fill="#fff"/><path d="M33.175 103.484h2.512v2.515h-2.512v-2.515Z" fill="#9E6CD8"/><path d="M33.175 100.977h2.512v2.509h-2.512v-2.509ZM33.175 98.463h2.512v2.509h-2.512v-2.51Z" fill="#9E6CD8"/><path d="M33.175 95.953h2.512v2.515h-2.512v-2.515ZM33.175 93.438h2.512v2.509h-2.512v-2.51Z" fill="#fff"/><path d="M33.175 90.928h2.512v2.51h-2.512v-2.51ZM33.175 88.414h2.512v2.51h-2.512v-2.51ZM33.175 65.805h2.512v2.514h-2.512v-2.514Z" fill="#fff"/><path d="M35.686 103.484h2.511v2.515h-2.511v-2.515Z" fill="#9E6CD8"/><path d="M35.686 100.977h2.511v2.509h-2.511v-2.509ZM35.686 98.463h2.511v2.509h-2.511v-2.51Z" fill="#9E6CD8"/><path d="M35.686 95.953h2.511v2.515h-2.511v-2.515ZM35.686 93.438h2.511v2.509h-2.511v-2.51Z" fill="#fff"/><path d="M48.254 103.484h2.517v2.515h-2.517v-2.515Z" fill="#9E6CD8"/><path d="M48.254 100.977h2.517v2.509h-2.517v-2.509ZM48.254 98.463h2.517v2.509h-2.517v-2.51Z" fill="#9E6CD8"/><path d="M48.254 95.953h2.517v2.515h-2.517v-2.515ZM48.254 93.438h2.517v2.509h-2.517v-2.51Z" fill="#fff"/><path d="M50.776 103.484h2.511v2.515h-2.511v-2.515Z" fill="#9E6CD8"/><path d="M50.776 100.977h2.511v2.509h-2.511v-2.509ZM50.776 98.463h2.511v2.509h-2.511v-2.51Z" fill="#9E6CD8"/><path d="M50.776 95.953h2.511v2.515h-2.511v-2.515ZM50.776 93.438h2.511v2.509h-2.511v-2.51Z" fill="#fff"/><path d="M50.776 90.928h2.511v2.51h-2.511v-2.51ZM50.776 65.805h2.511v2.514h-2.511v-2.514Z" fill="#fff"/><path d="M53.287 103.484H55.8v2.515h-2.512v-2.515Z" fill="#9E6CD8"/><path d="M53.287 100.977H55.8v2.509h-2.512v-2.509Z" fill="#9E6CD8"/><path d="M53.287 68.316H55.8v2.51h-2.512v-2.51Z" fill="#fff"/><path d="M53.287 65.805H55.8v2.514h-2.512v-2.514Z" fill="#fff"/><path d="M55.804 103.484h2.511v2.515h-2.511v-2.515Z" fill="#9E6CD8"/><path d="M55.804 100.977h2.511v2.509h-2.511v-2.509Z" fill="#9E6CD8"/><path d="M55.804 68.316h2.511v2.51h-2.511v-2.51Z" fill="#fff"/><path d="M55.804 65.805h2.511v2.514h-2.511v-2.514Z" fill="#fff"/><path d="M58.31 68.316h2.517v2.51H58.31v-2.51Z" fill="#fff"/><path d="M58.31 65.805h2.517v2.514H58.31v-2.514ZM60.832 68.316h2.512v2.51h-2.512v-2.51Z" fill="#fff"/><path d="M60.832 65.805h2.512v2.514h-2.512v-2.514ZM60.832 63.295h2.512v2.51h-2.512v-2.51Z" fill="#fff"/><path d="M63.344 65.805h2.512v2.514h-2.512v-2.514ZM63.344 63.295h2.512v2.51h-2.512v-2.51ZM63.344 60.78h2.512v2.509h-2.512v-2.51Z" fill="#fff"/><path d="M63.344 58.27h2.512v2.509h-2.512v-2.51Z" fill="#9E6CD8"/><path d="M65.862 63.295h2.511v2.51h-2.511v-2.51Z" fill="#fff"/><path d="M65.862 60.78h2.511v2.509h-2.511v-2.51ZM65.862 58.27h2.511v2.509h-2.511v-2.51Z" fill="#9E6CD8"/><path d="M68.367 60.78h2.517v2.509h-2.517v-2.51ZM68.367 58.27h2.517v2.509h-2.517v-2.51ZM68.367 55.754h2.517v2.515h-2.517v-2.515Z" fill="#E6EBEF"/><path d="M68.367 53.246h2.517v2.51h-2.517v-2.51ZM68.367 50.73h2.517v2.51h-2.517v-2.51ZM70.889 65.805H73.4v2.514H70.89v-2.514Z" fill="#E6EBEF"/><path d="M70.889 63.295H73.4v2.51H70.89v-2.51Z" fill="#FFC280"/><path d="M70.889 58.27H73.4v2.509H70.89v-2.51Z" fill="#FFBB69"/><path d="M70.889 50.73H73.4v2.51H70.89v-2.51Z" fill="#FFC280"/><path d="M73.4 68.316h2.512v2.51h-2.511v-2.51Z" fill="#C0C8CE"/><path d="M73.4 65.805h2.512v2.514h-2.511v-2.514Z" fill="#E6EBEF"/><path d="M73.4 53.246h2.512v2.51h-2.511v-2.51Z" fill="#FFBB69"/><path d="M75.917 68.316h2.512v2.51h-2.512v-2.51Z" fill="#E6EBEF"/><path d="M75.917 65.805h2.512v2.514h-2.512v-2.514Z" fill="#E6EBEF"/><path d="M75.917 63.295h2.512v2.51h-2.512v-2.51Z" fill="#FFBB69"/><path d="M78.429 68.316h2.516v2.51H78.43v-2.51Z" fill="#E6EBEF"/><path d="M78.429 65.805h2.516v2.514H78.43v-2.514Z" fill="#E6EBEF"/><path d="M78.429 58.27h2.516v2.509H78.43v-2.51Z" fill="#FFBB69"/><path d="M78.429 50.73h2.516v2.51H78.43v-2.51Z" fill="#FFC280"/><path d="M80.945 68.316h2.512v2.51h-2.511v-2.51Z" fill="#E6EBEF"/><path d="M80.945 65.805h2.512v2.514h-2.511v-2.514ZM80.945 63.295h2.512v2.51h-2.511v-2.51ZM80.945 60.78h2.512v2.509h-2.511v-2.51ZM80.945 58.27h2.512v2.509h-2.511v-2.51ZM80.945 55.754h2.512v2.515h-2.511v-2.515Z" fill="#E6EBEF"/><path d="M80.945 53.246h2.512v2.51h-2.511v-2.51ZM80.945 50.73h2.512v2.51h-2.511v-2.51Z" fill="#E6EBEF"/><path d="M3 50.73h2.512v2.51H3v-2.51Z" fill="#FFF8F0"/><path d="M3 48.223h2.512v2.51H3v-2.51ZM3 45.707h2.512v2.515H3v-2.515ZM3 43.197h2.512v2.51H3v-2.51ZM5.516 58.27h2.511v2.509H5.516v-2.51Z" fill="#FFF8F0"/><path d="M5.516 55.756h2.511v2.514H5.516v-2.514ZM5.516 53.246h2.511v2.51H5.516v-2.51ZM5.516 50.73h2.511v2.51H5.516v-2.51Z" fill="#FFF8F0"/><path d="M5.516 48.223h2.511v2.51H5.516v-2.51Z" fill="#FFF8F0"/><path d="M5.516 45.707h2.511v2.515H5.516v-2.515Z" fill="#EFE5DA"/><path d="M5.516 43.197h2.511v2.51H5.516v-2.51ZM5.516 40.684h2.511v2.509H5.516v-2.51ZM8.028 45.707h2.511v2.515H8.028v-2.515ZM8.028 43.197h2.511v2.51H8.028v-2.51Z" fill="#FFF8F0"/><path d="M8.028 40.684h2.511v2.509H8.028v-2.51Z" fill="#EFE5DA"/><path d="M10.539 45.707h2.517v2.515h-2.517v-2.515ZM10.539 43.197h2.517v2.51h-2.517v-2.51ZM10.539 40.684h2.517v2.509h-2.517v-2.51ZM13.062 45.707h2.511v2.515h-2.511v-2.515Z" fill="#FFF8F0"/><path d="M13.062 43.197h2.511v2.51h-2.511v-2.51Z" fill="#EFE5DA"/><path d="M13.062 40.684h2.511v2.509h-2.511v-2.51ZM15.573 45.707h2.512v2.515h-2.512v-2.515ZM15.573 43.197h2.512v2.51h-2.512v-2.51Z" fill="#FFF8F0"/><path d="M20.596 43.197h2.516v2.51h-2.516v-2.51ZM23.118 43.197h2.512v2.51h-2.512v-2.51ZM23.118 40.684h2.512v2.509h-2.512v-2.51ZM25.63 43.197h2.512v2.51H25.63v-2.51ZM25.63 40.684h2.512v2.509H25.63v-2.51ZM25.63 38.172h2.512v2.51H25.63v-2.51Z" fill="#531484"/><path d="M25.63 35.66h2.512v2.515H25.63V35.66ZM25.63 33.145h2.512v2.509H25.63v-2.51ZM28.142 40.684h2.516v2.509h-2.517v-2.51Z" fill="#531484"/><path d="M28.142 38.172h2.516v2.51h-2.517v-2.51Z" fill="#531484"/><path d="M28.142 35.66h2.516v2.515h-2.517V35.66ZM28.142 33.145h2.516v2.509h-2.517v-2.51Z" fill="#531484"/><path d="M28.142 30.635h2.516v2.51h-2.517v-2.51Z" fill="#531484"/><path d="M28.142 28.121h2.516v2.515h-2.517V28.12Z" fill="#531484"/><path d="M28.142 25.611h2.516v2.51h-2.517v-2.51ZM28.142 23.096h2.516v2.51h-2.517v-2.51Z" fill="#FFC0C0"/><path d="M30.657 85.904h2.512v2.515h-2.511v-2.515ZM30.657 83.39h2.512v2.51h-2.511v-2.51Z" fill="#5742C1"/><path d="M30.657 25.611h2.512v2.51h-2.511v-2.51Z" fill="#FFC0C0"/><path d="M33.175 93.438h2.512v2.509h-2.512v-2.51Z" fill="#5742C1"/><path d="M33.175 90.93h2.512v2.51h-2.512v-2.51ZM33.175 88.414h2.512v2.51h-2.512v-2.51Z" fill="#5742C1"/><path d="M33.175 85.904h2.512v2.515h-2.512v-2.515ZM33.175 83.39h2.512v2.51h-2.512v-2.51ZM33.175 80.88h2.512v2.51h-2.512v-2.51ZM33.175 78.367h2.512v2.51h-2.512v-2.51ZM33.175 75.852h2.512v2.514h-2.512v-2.514ZM33.175 73.342h2.512v2.51h-2.512v-2.51ZM33.175 70.828h2.512v2.51h-2.512v-2.51ZM33.175 68.318h2.512v2.51h-2.512v-2.51ZM33.175 65.803h2.512v2.514h-2.512v-2.514Z" fill="#5742C1"/><path d="M33.175 20.588h2.512v2.51h-2.512v-2.51Z" fill="#531484"/><path d="M35.686 93.438h2.511v2.509h-2.511v-2.51Z" fill="#5742C1"/><path d="M35.686 90.93h2.511v2.51h-2.511v-2.51ZM35.686 88.414h2.511v2.51h-2.511v-2.51Z" fill="#5742C1"/><path d="M35.686 85.904h2.511v2.515h-2.511v-2.515ZM35.686 83.39h2.511v2.51h-2.511v-2.51ZM35.686 80.88h2.511v2.51h-2.511v-2.51ZM35.686 78.367h2.511v2.51h-2.511v-2.51ZM35.686 75.852h2.511v2.514h-2.511v-2.514ZM35.686 73.342h2.511v2.51h-2.511v-2.51ZM35.686 70.828h2.511v2.51h-2.511v-2.51ZM35.686 68.318h2.511v2.51h-2.511v-2.51ZM35.686 65.803h2.511v2.514h-2.511v-2.514Z" fill="#5742C1"/><path d="M35.686 38.172h2.511v2.51h-2.511v-2.51Z" fill="#353535"/><path d="M35.686 35.66h2.511v2.515h-2.511V35.66Z" fill="#353535"/><path d="M35.686 23.096h2.511v2.51h-2.511v-2.51Z" fill="#531484"/><path d="M35.686 20.588h2.511v2.51h-2.511v-2.51ZM35.686 18.072h2.511v2.515h-2.511v-2.515Z" fill="#531484"/><path d="M38.197 90.93h2.517v2.51h-2.517v-2.51ZM38.197 88.414h2.517v2.51h-2.517v-2.51Z" fill="#5742C1"/><path d="M38.197 85.904h2.517v2.515h-2.517v-2.515ZM38.197 83.39h2.517v2.51h-2.517v-2.51ZM38.197 75.852h2.517v2.514h-2.517v-2.514ZM38.197 73.342h2.517v2.51h-2.517v-2.51Z" fill="#5742C1"/><path d="M38.197 43.197h2.517v2.51h-2.517v-2.51Z" fill="#3F2A5E"/><path d="M38.197 28.121h2.517v2.515h-2.517V28.12Z" fill="#531484"/><path d="M38.197 25.611h2.517v2.51h-2.517v-2.51ZM38.197 23.096h2.517v2.51h-2.517v-2.51Z" fill="#531484"/><path d="M38.197 20.588h2.517v2.51h-2.517v-2.51ZM38.197 18.072h2.517v2.515h-2.517v-2.515Z" fill="#531484"/><path d="M40.714 90.93h2.512v2.51h-2.512v-2.51ZM40.714 88.414h2.512v2.51h-2.512v-2.51Z" fill="#5742C1"/><path d="M40.714 85.904h2.512v2.515h-2.512v-2.515ZM40.714 83.39h2.512v2.51h-2.512v-2.51ZM40.714 75.852h2.512v2.514h-2.512v-2.514ZM40.714 73.342h2.512v2.51h-2.512v-2.51Z" fill="#5742C1"/><path d="M40.714 28.121h2.512v2.515h-2.512V28.12Z" fill="#531484"/><path d="M40.714 25.611h2.512v2.51h-2.512v-2.51ZM40.714 23.096h2.512v2.51h-2.512v-2.51Z" fill="#531484"/><path d="M40.714 20.588h2.512v2.51h-2.512v-2.51ZM40.714 18.072h2.512v2.515h-2.512v-2.515Z" fill="#531484"/><path d="M43.232 90.93h2.511v2.51h-2.511v-2.51ZM43.232 88.414h2.511v2.51h-2.511v-2.51Z" fill="#5742C1"/><path d="M43.232 85.904h2.511v2.515h-2.511v-2.515ZM43.232 83.39h2.511v2.51h-2.511v-2.51ZM43.232 75.852h2.511v2.514h-2.511v-2.514ZM43.232 73.342h2.511v2.51h-2.511v-2.51Z" fill="#5742C1"/><path d="M43.232 28.121h2.511v2.515h-2.511V28.12Z" fill="#531484"/><path d="M43.232 25.611h2.511v2.51h-2.511v-2.51ZM43.232 23.096h2.511v2.51h-2.511v-2.51Z" fill="#531484"/><path d="M43.232 20.588h2.511v2.51h-2.511v-2.51ZM43.232 18.072h2.511v2.515h-2.511v-2.515Z" fill="#531484"/><path d="M45.742 90.93h2.512v2.51h-2.512v-2.51ZM45.742 88.414h2.512v2.51h-2.512v-2.51Z" fill="#5742C1"/><path d="M45.742 85.904h2.512v2.515h-2.512v-2.515ZM45.742 83.39h2.512v2.51h-2.512v-2.51ZM45.742 75.852h2.512v2.514h-2.512v-2.514ZM45.742 73.342h2.512v2.51h-2.512v-2.51Z" fill="#5742C1"/><path d="M45.742 43.197h2.512v2.51h-2.512v-2.51Z" fill="#3F2A5E"/><path d="M45.742 25.611h2.512v2.51h-2.512v-2.51ZM45.742 23.096h2.512v2.51h-2.512v-2.51Z" fill="#531484"/><path d="M45.742 20.588h2.512v2.51h-2.512v-2.51ZM45.742 18.072h2.512v2.515h-2.512v-2.515Z" fill="#531484"/><path d="M48.254 93.438h2.517v2.509h-2.517v-2.51Z" fill="#5742C1"/><path d="M48.254 90.93h2.517v2.51h-2.517v-2.51ZM48.254 88.414h2.517v2.51h-2.517v-2.51Z" fill="#5742C1"/><path d="M48.254 85.904h2.517v2.515h-2.517v-2.515ZM48.254 83.39h2.517v2.51h-2.517v-2.51ZM48.254 80.88h2.517v2.51h-2.517v-2.51ZM48.254 78.367h2.517v2.51h-2.517v-2.51ZM48.254 75.852h2.517v2.514h-2.517v-2.514ZM48.254 73.342h2.517v2.51h-2.517v-2.51ZM48.254 70.828h2.517v2.51h-2.517v-2.51ZM48.254 68.318h2.517v2.51h-2.517v-2.51ZM48.254 65.803h2.517v2.514h-2.517v-2.514Z" fill="#5742C1"/><path d="M48.254 38.172h2.517v2.51h-2.517v-2.51Z" fill="#353535"/><path d="M48.254 35.66h2.517v2.515h-2.517V35.66Z" fill="#353535"/><path d="M48.254 23.096h2.517v2.51h-2.517v-2.51Z" fill="#531484"/><path d="M48.254 20.588h2.517v2.51h-2.517v-2.51ZM48.254 18.072h2.517v2.515h-2.517v-2.515Z" fill="#531484"/><path d="M50.776 93.438h2.511v2.509h-2.511v-2.51Z" fill="#5742C1"/><path d="M50.776 90.93h2.511v2.51h-2.511v-2.51ZM50.776 88.414h2.511v2.51h-2.511v-2.51Z" fill="#5742C1"/><path d="M50.776 85.904h2.511v2.515h-2.511v-2.515ZM50.776 83.39h2.511v2.51h-2.511v-2.51ZM50.776 80.88h2.511v2.51h-2.511v-2.51ZM50.776 78.367h2.511v2.51h-2.511v-2.51ZM50.776 75.852h2.511v2.514h-2.511v-2.514ZM50.776 73.342h2.511v2.51h-2.511v-2.51ZM50.776 70.828h2.511v2.51h-2.511v-2.51ZM50.776 68.318h2.511v2.51h-2.511v-2.51ZM50.776 65.803h2.511v2.514h-2.511v-2.514Z" fill="#5742C1"/><path d="M50.776 20.588h2.511v2.51h-2.511v-2.51Z" fill="#531484"/><path d="M53.287 85.904H55.8v2.515h-2.512v-2.515ZM53.287 83.39H55.8v2.51h-2.512v-2.51Z" fill="#5742C1"/><path d="M53.287 25.611H55.8v2.51h-2.512v-2.51Z" fill="#FFC0C0"/><path d="M55.805 40.684h2.511v2.509h-2.511v-2.51ZM55.805 38.172h2.511v2.51h-2.511v-2.51Z" fill="#531484"/><path d="M55.805 35.66h2.511v2.515h-2.511V35.66ZM55.805 33.145h2.511v2.509h-2.511v-2.51Z" fill="#531484"/><path d="M55.805 30.635h2.511v2.51h-2.511v-2.51Z" fill="#531484"/><path d="M55.805 28.121h2.511v2.515h-2.511V28.12Z" fill="#531484"/><path d="M55.805 25.611h2.511v2.51h-2.511v-2.51ZM55.805 23.096h2.511v2.51h-2.511v-2.51Z" fill="#FFC0C0"/><path d="M58.31 43.197h2.517v2.51H58.31v-2.51ZM58.31 40.684h2.517v2.509H58.31v-2.51ZM58.31 38.172h2.517v2.51H58.31v-2.51Z" fill="#531484"/><path d="M58.31 35.66h2.517v2.515H58.31V35.66ZM60.832 43.197h2.512v2.51h-2.512v-2.51ZM60.832 40.684h2.512v2.509h-2.512v-2.51Z" fill="#531484"/><path d="M68.367 45.707h2.517v2.515h-2.517v-2.515Z" fill="#FFF8F0"/><path d="M68.367 43.197h2.517v2.51h-2.517v-2.51Z" fill="#EFE5DA"/><path d="M70.889 55.756H73.4v2.514H70.89v-2.514ZM70.889 53.246H73.4v2.51H70.89v-2.51ZM70.889 50.73H73.4v2.51H70.89v-2.51Z" fill="#FFF8F0"/><path d="M70.889 48.223H73.4v2.51H70.89v-2.51ZM70.889 45.707H73.4v2.515H70.89v-2.515ZM70.889 43.197H73.4v2.51H70.89v-2.51ZM70.889 40.684H73.4v2.509H70.89v-2.51ZM73.4 45.707h2.512v2.515h-2.511v-2.515Z" fill="#FFF8F0"/><path d="M73.4 43.197h2.512v2.51h-2.511v-2.51Z" fill="#EFE5DA"/><path d="M73.4 40.684h2.512v2.509h-2.511v-2.51ZM75.917 53.246h2.512v2.51h-2.512v-2.51Z" fill="#FFF8F0"/><path d="M75.917 50.73h2.512v2.51h-2.512v-2.51Z" fill="#EFE5DA"/><path d="M75.917 48.223h2.512v2.51h-2.512v-2.51ZM75.917 45.707h2.512v2.515h-2.512v-2.515ZM75.917 43.197h2.512v2.51h-2.512v-2.51ZM75.917 40.684h2.512v2.509h-2.512v-2.51ZM78.429 63.293h2.516v2.51H78.43v-2.51ZM78.429 48.223h2.516v2.51H78.43v-2.51ZM78.429 45.707h2.516v2.515H78.43v-2.515Z" fill="#FFF8F0"/><path d="M78.429 43.197h2.516v2.51H78.43v-2.51Z" fill="#EFE5DA"/><path d="M78.429 40.684h2.516v2.509H78.43v-2.51ZM80.945 58.27h2.512v2.509h-2.511v-2.51Z" fill="#FFF8F0"/><path d="M80.945 55.756h2.512v2.514h-2.511v-2.514Z" fill="#FFF8F0"/><path d="M80.945 53.246h2.512v2.51h-2.511v-2.51Z" fill="#EFE5DA"/><path d="M80.945 50.73h2.512v2.51h-2.511v-2.51Z" fill="#FFF8F0"/><path d="M80.945 48.223h2.512v2.51h-2.511v-2.51ZM80.945 45.707h2.512v2.515h-2.511v-2.515ZM80.945 43.197h2.512v2.51h-2.511v-2.51Z" fill="#FFF8F0"/><path d="M40.715 5.51h2.512v2.51h-2.512V5.51ZM40.715 3h2.512v2.51h-2.512V3ZM40.715 8.023h2.512v2.515h-2.512V8.023ZM43.232 10.54h2.511v2.509h-2.511v-2.51Z" fill="#C40F06"/><path d="M40.715 10.54h2.512v2.509h-2.512v-2.51ZM43.232 13.047h2.511v2.51h-2.511v-2.51Z" fill="#E0C70E"/><path d="M40.715 13.047h2.512v2.51h-2.512v-2.51ZM43.232 15.563h2.511v2.509h-2.511v-2.51Z" fill="#3FAA00"/><path d="M40.715 15.563h2.512v2.509h-2.512v-2.51Z" fill="#00B6C4"/><path d="M40.715 20.588h2.512v2.51h-2.512v-2.51Z" fill="#0054CE"/><path d="M40.715 23.098h2.512v2.51h-2.512v-2.51ZM43.232 23.098h2.511v2.51h-2.511v-2.51Z" fill="#6400CE"/><path d="M60.833 40.684h2.512v2.509h-2.512v-2.51ZM58.311 35.658h2.517v2.515h-2.517v-2.515ZM58.311 38.174h2.517v2.51h-2.517v-2.51ZM55.805 30.635h2.511v2.51h-2.511v-2.51Z" fill="#8255B7"/><path d="M55.805 33.143h2.511v2.509h-2.511v-2.51ZM55.805 28.121h2.511v2.515h-2.511V28.12ZM23.118 40.684h2.512v2.509h-2.512v-2.51ZM20.596 43.197h2.517v2.51h-2.517v-2.51ZM25.63 40.684h2.512v2.509H25.63v-2.51ZM25.63 35.658h2.512v2.515H25.63v-2.515ZM25.63 33.143h2.512v2.509H25.63v-2.51Z" fill="#8255B7"/><path d="M25.63 38.174h2.512v2.51H25.63v-2.51ZM28.142 28.121h2.516v2.515h-2.517V28.12Z" fill="#8255B7"/><path d="M28.142 30.635h2.516v2.51h-2.517v-2.51ZM35.687 28.121h2.511v2.515h-2.511V28.12ZM35.687 20.588h2.511v2.51h-2.511v-2.51ZM38.198 30.635h2.517v2.51h-2.517v-2.51ZM38.198 25.61h2.517v2.509h-2.517v-2.51ZM40.715 28.121h2.512v2.515h-2.512V28.12Z" fill="#8255B7"/><path d="M40.715 18.072h2.512v2.515h-2.512v-2.515Z" fill="#0054CE"/><path d="M43.232 28.121h2.511v2.515h-2.511V28.12ZM43.232 25.61h2.511v2.509h-2.511v-2.51Z" fill="#8255B7"/><path d="M43.232 20.588h2.511v2.51h-2.511v-2.51Z" fill="#0054CE"/><path d="M43.232 18.072h2.511v2.515h-2.511v-2.515Z" fill="#00B6C4"/><path d="M45.743 25.61h2.512v2.509h-2.512v-2.51ZM48.255 23.098h2.517v2.51h-2.517v-2.51ZM48.255 20.588h2.517v2.51h-2.517v-2.51Z" fill="#8255B7"/><path d="M48.255 18.072h2.517v2.515h-2.517v-2.515Z" fill="#612699"/><path d="M50.777 20.588h2.511v2.51h-2.511v-2.51Z" fill="#8255B7"/><path d="M30.657 13.049h2.512v2.51h-2.512v-2.51ZM30.657 15.565h2.512v2.509h-2.512v-2.51Z" fill="#FFBB69"/><path d="M30.657 18.072h2.512v2.515h-2.512v-2.515Z" fill="#FFBB69"/><path d="M33.174 15.565h2.511v2.509h-2.51v-2.51ZM35.686 15.565h2.511v2.509h-2.511v-2.51ZM38.198 15.565h2.517v2.509h-2.517v-2.51ZM45.742 15.565h2.512v2.509h-2.512v-2.51ZM48.254 15.565h2.517v2.509h-2.517v-2.51ZM50.776 15.565h2.511v2.509h-2.511v-2.51Z" fill="#5742C1"/><path d="M53.287 18.072H55.8v2.515h-2.512v-2.515Z" fill="#5742C1"/><path d="M33.174 20.588h2.511v2.51h-2.51v-2.51ZM33.174 18.072h2.511v2.515h-2.51v-2.515Z" fill="#FFBB69"/><path d="M35.686 20.588h2.511v2.51h-2.511v-2.51Z" fill="#5742C1"/><path d="M35.686 23.096h2.511v2.51h-2.511v-2.51ZM35.686 18.072h2.511v2.515h-2.511v-2.515ZM35.686 25.611h2.511v2.51h-2.511v-2.51ZM40.714 25.611h2.512v2.51h-2.512v-2.51Z" fill="#5742C1"/><path d="M38.198 25.611h2.517v2.51h-2.517v-2.51ZM38.198 23.096h2.517v2.51h-2.517v-2.51Z" fill="#5742C1"/><path d="M38.198 20.588h2.517v2.51h-2.517v-2.51ZM38.198 18.072h2.517v2.515h-2.517v-2.515ZM43.23 25.611h2.512v2.51h-2.511v-2.51ZM45.742 25.611h2.512v2.51h-2.512v-2.51ZM48.254 23.096h2.517v2.51h-2.517v-2.51ZM45.742 23.096h2.512v2.51h-2.512v-2.51ZM45.742 18.072h2.512v2.515h-2.512v-2.515Z" fill="#5742C1"/><path d="M45.742 20.588h2.512v2.51h-2.512v-2.51ZM48.254 18.072h2.517v2.515h-2.517v-2.515ZM48.254 20.588h2.517v2.51h-2.517v-2.51ZM50.776 18.072h2.511v2.515h-2.511v-2.515ZM50.776 20.588h2.511v2.51h-2.511v-2.51Z" fill="#5742C1"/><path d="M20.595 60.78h2.516v2.509h-2.516v-2.51ZM23.117 65.803h2.512v2.514h-2.512v-2.514ZM23.117 63.291h2.512v2.51h-2.512v-2.51Z" fill="#F7F2F2"/><path d="M25.628 65.803h2.512v2.514h-2.512v-2.514Z" fill="#F7F2F2"/><path d="M25.628 55.754h2.512v2.515h-2.512v-2.515ZM25.628 53.244h2.512v2.51h-2.512v-2.51ZM25.628 50.728h2.512v2.51h-2.512v-2.51Z" fill="#EAE4E4"/><path d="M25.628 48.22h2.512v2.51h-2.512v-2.51ZM25.628 45.705h2.512v2.515h-2.512v-2.515Z" fill="#EAE4E4"/><path d="M28.14 65.803h2.516v2.514H28.14v-2.514Z" fill="#F7F2F2"/><path d="M28.14 58.27h2.516v2.509H28.14v-2.51Z" fill="#EAE4E4"/><path d="M30.657 103.484h2.511v2.515h-2.511v-2.515Z" fill="#A379E0"/><path d="M30.657 100.977h2.511v2.509h-2.511v-2.509Z" fill="#A379E0"/><path d="M30.657 85.902h2.511v2.515h-2.511v-2.515Z" fill="#4738B2"/><path d="M30.657 65.803h2.511v2.514h-2.511v-2.514Z" fill="#F7F2F2"/><path d="M30.657 60.78h2.511v2.509h-2.511v-2.51Z" fill="#EAE4E4"/><path d="M30.657 40.682h2.511v2.509h-2.511v-2.51Z" fill="#FFC0C0"/><path d="M33.173 100.977h2.512v2.509h-2.512v-2.509Z" fill="#A379E0"/><path d="M33.173 93.438h2.512v2.509h-2.512v-2.51Z" fill="#4738B2"/><path d="M33.173 90.928h2.512v2.51h-2.512v-2.51ZM33.173 88.412h2.512v2.51h-2.512v-2.51ZM33.173 65.803h2.512v2.514h-2.512v-2.514Z" fill="#4738B2"/><path d="M33.173 60.78h2.512v2.509h-2.512v-2.51Z" fill="#EAE4E4"/><path d="M33.173 40.682h2.512v2.509h-2.512v-2.51Z" fill="#FFC0C0"/><path d="M35.685 93.438h2.511v2.509h-2.511v-2.51ZM35.685 65.803h2.511v2.514h-2.511v-2.514Z" fill="#4738B2"/><path d="M35.685 60.78h2.511v2.509h-2.511v-2.51Z" fill="#EAE4E4"/><path d="M38.196 90.928h2.517v2.51h-2.517v-2.51Z" fill="#4738B2"/><path d="M38.196 80.879h2.517v2.51h-2.517v-2.51Z" fill="#EFDFDF"/><path d="M38.196 75.85h2.517v2.514h-2.517V75.85Z" fill="#4738B2"/><path d="M38.196 60.78h2.517v2.509h-2.517v-2.51Z" fill="#EAE4E4"/><path d="M40.713 90.928h2.512v2.51h-2.512v-2.51Z" fill="#4738B2"/><path d="M40.713 80.879h2.512v2.51h-2.512v-2.51Z" fill="#EFDFDF"/><path d="M40.713 75.85h2.512v2.514h-2.512V75.85Z" fill="#4738B2"/><path d="M40.713 60.78h2.512v2.509h-2.512v-2.51Z" fill="#EAE4E4"/><path d="M43.23 90.928h2.511v2.51H43.23v-2.51Z" fill="#4738B2"/><path d="M43.23 80.879h2.511v2.51H43.23v-2.51Z" fill="#EFDFDF"/><path d="M43.23 75.85h2.511v2.514H43.23V75.85Z" fill="#4738B2"/><path d="M43.23 60.78h2.511v2.509H43.23v-2.51Z" fill="#EAE4E4"/><path d="M45.741 90.928h2.512v2.51H45.74v-2.51Z" fill="#4738B2"/><path d="M45.741 80.879h2.512v2.51H45.74v-2.51Z" fill="#EFDFDF"/><path d="M45.741 75.85h2.512v2.514H45.74V75.85Z" fill="#4738B2"/><path d="M45.741 60.78h2.512v2.509H45.74v-2.51Z" fill="#EAE4E4"/><path d="M48.254 93.438h2.517v2.509h-2.517v-2.51ZM48.254 65.803h2.517v2.514h-2.517v-2.514Z" fill="#4738B2"/><path d="M48.254 60.78h2.517v2.509h-2.517v-2.51Z" fill="#EAE4E4"/><path d="M50.776 100.977h2.511v2.509h-2.511v-2.509ZM50.776 98.459h2.511v2.509h-2.511v-2.509Z" fill="#A379E0"/><path d="M50.776 65.803h2.511v2.514h-2.511v-2.514Z" fill="#4738B2"/><path d="M50.776 60.78h2.511v2.509h-2.511v-2.51Z" fill="#EAE4E4"/><path d="M50.776 40.682h2.511v2.509h-2.511v-2.51Z" fill="#FFC0C0"/><path d="M53.286 100.977h2.512v2.509h-2.512v-2.509Z" fill="#A379E0"/><path d="M53.286 85.902h2.512v2.515h-2.512v-2.515Z" fill="#4738B2"/><path d="M53.286 65.803h2.512v2.514h-2.512v-2.514Z" fill="#F7F2F2"/><path d="M53.286 60.78h2.512v2.509h-2.512v-2.51Z" fill="#EAE4E4"/><path d="M53.286 40.682h2.512v2.509h-2.512v-2.51Z" fill="#FFC0C0"/><path d="M55.803 103.484h2.512v2.515h-2.512v-2.515Z" fill="#A379E0"/><path d="M55.803 100.977h2.512v2.509h-2.512v-2.509Z" fill="#A379E0"/><path d="M55.803 65.803h2.512v2.514h-2.512v-2.514Z" fill="#F7F2F2"/><path d="M55.803 58.27h2.512v2.509h-2.512v-2.51Z" fill="#EAE4E4"/><path d="M58.31 65.803h2.516v2.514H58.31v-2.514Z" fill="#F7F2F2"/><path d="M58.31 55.754h2.516v2.515H58.31v-2.515ZM58.31 53.244h2.516v2.51H58.31v-2.51ZM58.31 50.728h2.516v2.51H58.31v-2.51Z" fill="#EAE4E4"/><path d="M58.31 48.22h2.516v2.51H58.31v-2.51ZM58.31 45.705h2.516v2.515H58.31v-2.515Z" fill="#EAE4E4"/><path d="M60.831 65.803h2.512v2.514H60.83v-2.514ZM60.831 63.291h2.512v2.51H60.83v-2.51ZM63.343 60.78h2.511v2.509h-2.511v-2.51Z" fill="#F7F2F2"/><path fill-rule="evenodd" clip-rule="evenodd" d="M5.723 40.683v2.514H3.226v27.63h14.999v-2.51h5v2.51h7.496v17.586h2.503v12.563H30.72V106h7.502V93.437h10V106h9.999v-5.024h-5V88.413h2.503V70.827h7.497v-2.51h5v2.51h15.004v-27.63h-2.503v-2.514h-10v2.514h-2.502v10.048h-5v10.048h-2.497v2.51h-9.999v-2.51h5V60.78h2.497v-2.51h2.502V45.707h2.498v-5.024h-2.498v-5.024h-2.502V18.072h-5v-2.51h-7.497V10.54h-2.502V3h-2.497v12.563h-7.502v-2.515H30.72v5.024h-2.497v15.072h-2.503v7.539h-2.497v2.514h-2.502v2.51h5v12.562h2.502v2.51h2.497v2.514h5v2.51h-10v-2.51h-2.497V58.27h-2.502v-5.024h-2.497V43.197h-2.503v-2.514h-10Zm13-.486v-2.514h-16v2.514H.226v33.63H27.72v17.586h2.503v6.563H27.72V109h13.502V96.437h4V109h15.999V97.976h-5v-6.563h2.503V73.827h27.5v-33.63h-2.502v-2.514h-16v2.514h-1.501v-2.514h-2.498v-5.024h-2.502V15.072h-5v-2.51h-7.497V7.54h-2.502V0h-8.497v12.563h-1.502v-2.515H27.72v5.024h-2.497v15.072h-2.503v7.539h-2.497v2.514h-1.502Zm46.498 8.51v1.538h-1.497v-1.538h1.497Zm-43.996 0v1.538h1.496v-1.538h-1.496Z" fill="#000"/></svg>