<svg width="32" height="30" viewBox="0 0 32 30" fill="none" xmlns="http://www.w3.org/2000/svg">
<path d="M5.08089 2.97559H2.72852V5.45817H5.08089V2.97559Z" fill="black"/>
<path d="M9.78482 2.97594H12.1372V0.624023H9.78482H7.43245H5.08008V2.97594H7.43245H9.78482Z" fill="black"/>
<path d="M14.6204 2.97559H12.2681V5.45817H14.6204V2.97559Z" fill="black"/>
<path d="M16.973 5.45898H14.6206V7.8109H16.973V5.45898Z" fill="black"/>
<path d="M19.3255 2.97559H16.9731V5.45817H19.3255V2.97559Z" fill="black"/>
<path d="M24.1606 0.624023H21.6776H21.4162H19.3252V2.97594H21.4162H21.6776H24.1606H26.513V0.624023H24.1606Z" fill="black"/>
<path d="M28.8656 2.97559H26.5132V5.45817H28.8656V2.97559Z" fill="black"/>
<path d="M28.8657 5.45898V7.8109V10.1628V14.9973H31.3488V10.1628V7.8109V5.45898H28.8657Z" fill="black"/>
<path d="M28.8656 14.9971H26.5132V17.349H28.8656V14.9971Z" fill="black"/>
<path d="M26.5135 17.3486H24.1611V19.7006H26.5135V17.3486Z" fill="black"/>
<path d="M24.1608 19.7002H21.6777V22.0521H24.1608V19.7002Z" fill="black"/>
<path d="M21.6776 22.0527H19.3252V24.4046H21.6776V22.0527Z" fill="black"/>
<path d="M19.3255 24.5352H16.9731V26.8871H19.3255V24.5352Z" fill="black"/>
<path d="M16.973 26.8867H14.6206V29.2386H16.973V26.8867Z" fill="black"/>
<path d="M14.6204 24.5352H12.2681V26.8871H14.6204V24.5352Z" fill="black"/>
<path d="M12.2687 22.0527H9.78564V24.5353H12.2687V22.0527Z" fill="black"/>
<path d="M9.78548 19.7002H7.43311V22.0521H9.78548V19.7002Z" fill="black"/>
<path d="M7.43245 17.3486H5.08008V19.7006H7.43245V17.3486Z" fill="black"/>
<path d="M5.08089 14.9971H2.72852V17.349H5.08089V14.9971Z" fill="black"/>
<path d="M2.72818 12.5147V10.1628V7.8109V5.45898H0.245117V7.8109V10.1628V12.5147V14.8667H2.72818V12.5147Z" fill="black"/>
<path d="M26.5136 5.45817V2.97559H24.1612H21.6782H21.1554H19.3258V5.45817H16.9734V7.81008H14.6211V5.45817H12.2687V2.97559H9.78563H7.43326V5.45817H5.08089V7.81008H2.72852V14.9965H5.08089V17.3484H7.43326V19.7003H9.78563V22.0522H12.2687V24.5348H14.6211V26.8867H16.9734V24.5348H19.3258V22.0522H21.6782V19.7003H24.1612V17.3484H26.5136V14.9965H28.866V5.45817H26.5136Z" fill="#CE0002"/>
</svg>
