<svg width="44" height="45" viewBox="0 0 44 45" fill="none" xmlns="http://www.w3.org/2000/svg">
<g clip-path="url(#clip0_2040_7975)">
<path d="M35.5469 41.6406H32.8125V44.375H35.5469V41.6406Z" fill="#F7FEFF"/>
<path d="M10.9375 41.6406H8.20312V44.375H10.9375V41.6406Z" fill="#F7FEFF"/>
<path d="M38.2812 38.9062H35.5469V41.6406H38.2812V38.9062Z" fill="#F7FEFF"/>
<path d="M35.5469 38.9062H32.8125V41.6406H35.5469V38.9062Z" fill="#231E2B"/>
<path d="M32.8125 38.9062H27.3438V41.6406H32.8125V38.9062Z" fill="#F7FEFF"/>
<path d="M16.4062 38.9062H10.9375V41.6406H16.4062V38.9062Z" fill="#F7FEFF"/>
<path d="M10.9375 38.9062H8.20312V41.6406H10.9375V38.9062Z" fill="#231E2B"/>
<path d="M8.20312 38.9062H5.46875V41.6406H8.20312V38.9062Z" fill="#F7FEFF"/>
<path d="M41.0156 33.4375H38.2812V38.9062H41.0156V33.4375Z" fill="#F7FEFF"/>
<path d="M35.5469 36.1719H32.8125V38.9062H35.5469V36.1719Z" fill="#E2B436"/>
<path d="M32.8125 36.1719H27.3438V38.9062H32.8125V36.1719Z" fill="#231E2B"/>
<path d="M27.3438 36.1719H16.4062V38.9062H27.3438V36.1719Z" fill="#F7FEFF"/>
<path d="M16.4062 36.1719H10.9375V38.9062H16.4062V36.1719Z" fill="#231E2B"/>
<path d="M10.9375 36.1719H8.20312V38.9062H10.9375V36.1719Z" fill="#CF8934"/>
<path d="M8.20312 33.4375H5.46875V38.9062H8.20312V33.4375Z" fill="#231E2B"/>
<path d="M38.2812 33.4375H35.5469V38.9062H38.2812V33.4375Z" fill="#231E2B"/>
<path d="M35.5469 33.4375H32.8125V36.1719H35.5469V33.4375Z" fill="#F5F38E"/>
<path d="M32.8125 33.4375H30.0781V36.1719H32.8125V33.4375Z" fill="#E2B436"/>
<path d="M30.0781 33.4375H27.3438V36.1719H30.0781V33.4375Z" fill="#CF8934"/>
<path d="M27.3438 33.4375H16.4062V36.1719H27.3438V33.4375Z" fill="#231E2B"/>
<path d="M16.4062 33.4375H13.6719V36.1719H16.4062V33.4375Z" fill="#CF8934"/>
<path d="M13.6719 33.4375H10.9375V36.1719H13.6719V33.4375Z" fill="#E2B436"/>
<path d="M10.9375 33.4375H8.20312V36.1719H10.9375V33.4375Z" fill="#F5F38E"/>
<path d="M5.46875 33.4375H2.73438V38.9062H5.46875V33.4375Z" fill="#F7FEFF"/>
<path d="M24.6094 30.7031H16.4062V33.4375H24.6094V30.7031Z" fill="#CF8934"/>
<path d="M10.9375 22.5H8.20312V33.4375H10.9375V22.5Z" fill="#231E2B"/>
<path d="M8.20312 22.5H5.46875V33.4375H8.20312V22.5Z" fill="#F7FEFF"/>
<path d="M32.8125 27.9688H30.0781V33.4375H32.8125V27.9688Z" fill="#F5F38E"/>
<path d="M13.6719 27.9688H10.9375V33.4375H13.6719V27.9688Z" fill="#F5F38E"/>
<path d="M16.4062 27.9688V25.2344H13.6719V22.5H10.9375V27.9688H16.4062Z" fill="#CF8934"/>
<path d="M38.2812 22.5H35.5469V33.4375H38.2812V22.5Z" fill="#F7FEFF"/>
<path d="M35.5469 22.5H32.8125V33.4375H35.5469V22.5Z" fill="#231E2B"/>
<path d="M30.0781 25.2344H27.3438V27.9688H32.8125V22.5H30.0781V25.2344Z" fill="#CF8934"/>
<path d="M41.0156 19.7656H38.2812V22.5H41.0156V19.7656Z" fill="#F7FEFF"/>
<path d="M38.2812 19.7656H35.5469V22.5H38.2812V19.7656Z" fill="#231E2B"/>
<path d="M35.5469 19.7656H32.8125V22.5H35.5469V19.7656Z" fill="#CF8934"/>
<path d="M10.9375 19.7656V22.5H13.6719V25.2344H16.4062V27.9688H13.6719V33.4375H16.4062V30.7031H24.6094V33.4375H30.0781V27.9688H27.3438V25.2344H30.0781V22.5H32.8125V19.7656H30.0781V17.0312H27.3438V14.2969H24.6094V11.5625H19.1406V14.2969H16.4062V17.0312H13.6719V19.7656H10.9375Z" fill="#E2B436"/>
<path d="M10.9375 19.7656H8.20312V22.5H10.9375V19.7656Z" fill="#CF8934"/>
<path d="M8.20312 19.7656H5.46875V22.5H8.20312V19.7656Z" fill="#231E2B"/>
<path d="M5.46875 19.7656H2.73438V22.5H5.46875V19.7656Z" fill="#F7FEFF"/>
<path d="M43.75 17.0312H41.0156V19.7656H43.75V17.0312Z" fill="#F7FEFF"/>
<path d="M41.0156 17.0312H38.2812V19.7656H41.0156V17.0312Z" fill="#231E2B"/>
<path d="M38.2812 17.0312H30.0781V19.7656H38.2812V17.0312Z" fill="#F5F38E"/>
<path d="M13.6719 17.0312H5.46875V19.7656H13.6719V17.0312Z" fill="#F5F38E"/>
<path d="M5.46875 17.0312H2.73438V19.7656H5.46875V17.0312Z" fill="#231E2B"/>
<path d="M2.73438 17.0312H0V19.7656H2.73438V17.0312Z" fill="#F7FEFF"/>
<path d="M41.0156 14.2969H38.2812V17.0312H41.0156V14.2969Z" fill="#F7FEFF"/>
<path d="M38.2812 14.2969H30.0781V17.0312H38.2812V14.2969Z" fill="#231E2B"/>
<path d="M30.0781 14.2969H27.3438V17.0312H30.0781V14.2969Z" fill="#F5F38E"/>
<path d="M16.4062 14.2969H13.6719V17.0312H16.4062V14.2969Z" fill="#CF8934"/>
<path d="M13.6719 14.2969H5.46875V17.0312H13.6719V14.2969Z" fill="#231E2B"/>
<path d="M5.46875 14.2969H2.73438V17.0312H5.46875V14.2969Z" fill="#F7FEFF"/>
<path d="M38.2812 11.5625H30.0781V14.2969H38.2812V11.5625Z" fill="#F7FEFF"/>
<path d="M30.0781 11.5625H27.3438V14.2969H30.0781V11.5625Z" fill="#231E2B"/>
<path d="M27.3438 11.5625H24.6094V14.2969H27.3438V11.5625Z" fill="#F5F38E"/>
<path d="M19.1406 11.5625H16.4062V14.2969H19.1406V11.5625Z" fill="#CF8934"/>
<path d="M16.4062 11.5625H13.6719V14.2969H16.4062V11.5625Z" fill="#231E2B"/>
<path d="M13.6719 11.5625H5.46875V14.2969H13.6719V11.5625Z" fill="#F7FEFF"/>
<path d="M30.0781 6.09375H27.3438V11.5625H30.0781V6.09375Z" fill="#F7FEFF"/>
<path d="M24.6094 11.5625V6.09375H21.875V8.82812H19.1406V11.5625H24.6094Z" fill="#F5F38E"/>
<path d="M19.1406 8.82812H16.4062V11.5625H19.1406V8.82812Z" fill="#231E2B"/>
<path d="M16.4062 8.82812H13.6719V11.5625H16.4062V8.82812Z" fill="#F7FEFF"/>
<path d="M27.3438 6.09375H24.6094V11.5625H27.3438V6.09375Z" fill="#231E2B"/>
<path d="M21.875 6.09375H19.1406V8.82812H21.875V6.09375Z" fill="#231E2B"/>
<path d="M19.1406 6.09375H16.4062V8.82812H19.1406V6.09375Z" fill="#F7FEFF"/>
<path d="M27.3438 3.35938H24.6094V6.09375H27.3438V3.35938Z" fill="#F7FEFF"/>
<path d="M24.6094 3.35938H21.875V6.09375H24.6094V3.35938Z" fill="#231E2B"/>
<path d="M21.875 3.35938H19.1406V6.09375H21.875V3.35938Z" fill="#F7FEFF"/>
<path d="M24.6094 0.625H21.875V3.35938H24.6094V0.625Z" fill="#F7FEFF"/>
</g>
<defs>
<clipPath id="clip0_2040_7975">
<rect width="43.75" height="43.75" fill="white" transform="translate(0 0.625)"/>
</clipPath>
</defs>
</svg>
