<svg width="45" height="45" viewBox="0 0 45 45" fill="none" xmlns="http://www.w3.org/2000/svg">
<g clip-path="url(#clip0_2040_7859)">
<path d="M30.9531 41.6406H14.5469V44.375H30.9531V41.6406Z" fill="#F7FEFF"/>
<path d="M33.6875 36.1719H30.9531V41.6406H33.6875V36.1719Z" fill="#F7FEFF"/>
<path d="M28.2188 38.9062H17.2812V36.1719H14.5469V41.6406H30.9531V36.1719H28.2188V38.9062Z" fill="#231E2B"/>
<path d="M28.2188 36.1719H25.4844V38.9062H28.2188V36.1719Z" fill="#F5F38E"/>
<path d="M25.4844 36.1719H20.0156V38.9062H25.4844V36.1719Z" fill="#E2B436"/>
<path d="M20.0156 36.1719H17.2812V38.9062H20.0156V36.1719Z" fill="#F5F38E"/>
<path d="M14.5469 36.1719H11.8125V41.6406H14.5469V36.1719Z" fill="#F7FEFF"/>
<path d="M17.2812 27.9688H14.5469V36.1719H17.2812V27.9688Z" fill="#F7FEFF"/>
<path d="M22.75 33.4375H20.0156V36.1719H25.4844V30.7031H22.75V33.4375Z" fill="#F5F38E"/>
<path d="M22.75 30.7031H20.0156V33.4375H22.75V30.7031Z" fill="#E2B436"/>
<path d="M30.9531 27.9688H28.2188V36.1719H30.9531V27.9688Z" fill="#F7FEFF"/>
<path d="M17.2812 36.1719H20.0156V25.2344H14.5469V27.9688H17.2812V36.1719Z" fill="#231E2B"/>
<path d="M36.4219 25.2344H30.9531V27.9688H36.4219V25.2344Z" fill="#F7FEFF"/>
<path d="M25.4844 25.2344V36.1719H28.2188V27.9688H30.9531V25.2344H25.4844Z" fill="#231E2B"/>
<path d="M25.4844 25.2344H20.0156V30.7031H25.4844V25.2344Z" fill="#CF8934"/>
<path d="M14.5469 25.2344H9.07812V27.9688H14.5469V25.2344Z" fill="#F7FEFF"/>
<path d="M39.1562 22.5H36.4219V25.2344H39.1562V22.5Z" fill="#F7FEFF"/>
<path d="M36.4219 22.5H30.9531V25.2344H36.4219V22.5Z" fill="#231E2B"/>
<path d="M30.9531 22.5H28.2188V25.2344H30.9531V22.5Z" fill="#CF8934"/>
<path d="M25.4844 22.5V19.7656H28.2188V8.82812H11.8125V19.7656H14.5469V22.5H17.2812V25.2344H28.2188V22.5H25.4844Z" fill="#E2B436"/>
<path d="M17.2812 22.5H14.5469V25.2344H17.2812V22.5Z" fill="#CF8934"/>
<path d="M14.5469 22.5H9.07812V25.2344H14.5469V22.5Z" fill="#231E2B"/>
<path d="M9.07812 22.5H6.34375V25.2344H9.07812V22.5Z" fill="#F7FEFF"/>
<path d="M41.8906 19.7656H39.1562V22.5H41.8906V19.7656Z" fill="#F7FEFF"/>
<path d="M39.1562 19.7656H36.4219V22.5H39.1562V19.7656Z" fill="#231E2B"/>
<path d="M36.4219 19.7656H30.9531V22.5H36.4219V19.7656Z" fill="#CF8934"/>
<path d="M30.9531 19.7656H28.2188V22.5H30.9531V19.7656Z" fill="#E2B436"/>
<path d="M28.2188 19.7656H25.4844V22.5H28.2188V19.7656Z" fill="#F5F38E"/>
<path d="M14.5469 19.7656H9.07812V22.5H14.5469V19.7656Z" fill="#CF8934"/>
<path d="M9.07812 19.7656H6.34375V22.5H9.07812V19.7656Z" fill="#231E2B"/>
<path d="M6.34375 19.7656H3.60938V22.5H6.34375V19.7656Z" fill="#F7FEFF"/>
<path d="M39.1562 17.0312H36.4219V19.7656H39.1562V17.0312Z" fill="#CF8934"/>
<path d="M11.8125 11.5625H9.07812V19.7656H11.8125V11.5625Z" fill="#231E2B"/>
<path d="M9.07812 17.0312H6.34375V19.7656H9.07812V17.0312Z" fill="#CF8934"/>
<path d="M6.34375 8.82812H3.60938V19.7656H6.34375V8.82812Z" fill="#231E2B"/>
<path d="M41.8906 8.82812H39.1562V19.7656H41.8906V8.82812Z" fill="#231E2B"/>
<path d="M36.4219 11.5625H33.6875V19.7656H36.4219V11.5625Z" fill="#231E2B"/>
<path d="M9.07812 11.5625H6.34375V17.0312H9.07812V11.5625Z" fill="#E2B436"/>
<path d="M3.60938 8.82812H0.875V19.7656H3.60938V8.82812Z" fill="#F7FEFF"/>
<path d="M39.1562 11.5625H36.4219V17.0312H39.1562V11.5625Z" fill="#E2B436"/>
<path d="M44.625 8.82812H41.8906V19.7656H44.625V8.82812Z" fill="#F7FEFF"/>
<path d="M39.1562 8.82812H36.4219V11.5625H39.1562V8.82812Z" fill="#F5F38E"/>
<path d="M36.4219 8.82812H33.6875V11.5625H36.4219V8.82812Z" fill="#CF8934"/>
<path d="M33.6875 8.82812H30.9531V19.7656H33.6875V8.82812Z" fill="#E2B436"/>
<path d="M11.8125 8.82812H9.07812V11.5625H11.8125V8.82812Z" fill="#CF8934"/>
<path d="M9.07812 8.82812H6.34375V11.5625H9.07812V8.82812Z" fill="#F5F38E"/>
<path d="M41.8906 6.09375H39.1562V8.82812H41.8906V6.09375Z" fill="#F7FEFF"/>
<path d="M39.1562 6.09375H33.6875V8.82812H39.1562V6.09375Z" fill="#231E2B"/>
<path d="M28.2188 8.82812V19.7656H30.9531V8.82812H33.6875V6.09375H11.8125V8.82812H28.2188Z" fill="#F5F38E"/>
<path d="M11.8125 6.09375H6.34375V8.82812H11.8125V6.09375Z" fill="#231E2B"/>
<path d="M6.34375 6.09375H3.60938V8.82812H6.34375V6.09375Z" fill="#F7FEFF"/>
<path d="M39.1562 3.35938H33.6875V6.09375H39.1562V3.35938Z" fill="#F7FEFF"/>
<path d="M33.6875 3.35938H11.8125V6.09375H33.6875V3.35938Z" fill="#231E2B"/>
<path d="M11.8125 3.35938H6.34375V6.09375H11.8125V3.35938Z" fill="#F7FEFF"/>
<path d="M33.6875 0.625H11.8125V3.35938H33.6875V0.625Z" fill="#F7FEFF"/>
</g>
<defs>
<clipPath id="clip0_2040_7859">
<rect width="43.75" height="43.75" fill="white" transform="translate(0.875 0.625)"/>
</clipPath>
</defs>
</svg>
