<svg width="44" height="45" viewBox="0 0 44 45" fill="none" xmlns="http://www.w3.org/2000/svg">
<g clip-path="url(#clip0_2040_7925)">
<path d="M41.0156 41.8906H2.73438V44.625H41.0156V41.8906Z" fill="#F7FEFF"/>
<path d="M41.0156 33.6875H38.2812V39.1562H5.46875V33.6875H2.73438V41.8906H41.0156V33.6875Z" fill="#231E2B"/>
<path d="M2.73438 33.6875H0V41.8906H2.73438V33.6875Z" fill="#F7FEFF"/>
<path d="M43.75 33.6875H41.0156V41.8906H43.75V33.6875Z" fill="#F7FEFF"/>
<path d="M41.0156 30.9531H38.2812V33.6875H41.0156V30.9531Z" fill="#F7FEFF"/>
<path d="M38.2812 30.9531H35.5469V33.6875H38.2812V30.9531Z" fill="#231E2B"/>
<path d="M35.5469 30.9531H30.0781V33.6875H27.3438V30.9531H21.875V33.6875H19.1406V30.9531H16.4062V33.6875H13.6719V30.9531H8.20312V33.6875H5.46875V39.1562H38.2812V33.6875H35.5469V30.9531Z" fill="#B6B7B8"/>
<path d="M30.0781 30.9531H27.3438V33.6875H30.0781V30.9531Z" fill="#998B8C"/>
<path d="M21.875 30.9531H19.1406V33.6875H21.875V30.9531Z" fill="#998B8C"/>
<path d="M16.4062 30.9531H13.6719V33.6875H16.4062V30.9531Z" fill="#998B8C"/>
<path d="M8.20312 30.9531H5.46875V33.6875H8.20312V30.9531Z" fill="#231E2B"/>
<path d="M5.46875 30.9531H2.73438V33.6875H5.46875V30.9531Z" fill="#F7FEFF"/>
<path d="M38.2812 28.2188H35.5469V30.9531H38.2812V28.2188Z" fill="#F7FEFF"/>
<path d="M35.5469 28.2188H32.8125V30.9531H35.5469V28.2188Z" fill="#231E2B"/>
<path d="M32.8125 28.2188H30.0781V30.9531H32.8125V28.2188Z" fill="#998B8C"/>
<path d="M27.3438 28.2188H21.875V30.9531H27.3438V28.2188Z" fill="#998B8C"/>
<path d="M19.1406 28.2188H16.4062V30.9531H19.1406V28.2188Z" fill="#998B8C"/>
<path d="M16.4062 30.9531V28.2188H19.1406V30.9531H21.875V28.2188H27.3438V30.9531H30.0781V25.4844H27.3438V22.75H24.6094V20.0156H19.1406V22.75H16.4062V25.4844H13.6719V30.9531H16.4062Z" fill="#F7FEFF"/>
<path d="M13.6719 28.2188H10.9375V30.9531H13.6719V28.2188Z" fill="#998B8C"/>
<path d="M10.9375 28.2188H8.20312V30.9531H10.9375V28.2188Z" fill="#231E2B"/>
<path d="M8.20312 28.2188H5.46875V30.9531H8.20312V28.2188Z" fill="#F7FEFF"/>
<path d="M35.5469 25.4844H32.8125V28.2188H35.5469V25.4844Z" fill="#F7FEFF"/>
<path d="M32.8125 25.4844H30.0781V28.2188H32.8125V25.4844Z" fill="#231E2B"/>
<path d="M13.6719 25.4844H10.9375V28.2188H13.6719V25.4844Z" fill="#231E2B"/>
<path d="M10.9375 25.4844H8.20312V28.2188H10.9375V25.4844Z" fill="#F7FEFF"/>
<path d="M32.8125 22.75H30.0781V25.4844H32.8125V22.75Z" fill="#F7FEFF"/>
<path d="M30.0781 22.75H27.3438V25.4844H30.0781V22.75Z" fill="#231E2B"/>
<path d="M16.4062 22.75H13.6719V25.4844H16.4062V22.75Z" fill="#231E2B"/>
<path d="M13.6719 22.75H10.9375V25.4844H13.6719V22.75Z" fill="#F7FEFF"/>
<path d="M30.0781 20.0156H27.3438V22.75H30.0781V20.0156Z" fill="#F7FEFF"/>
<path d="M27.3438 20.0156H24.6094V22.75H27.3438V20.0156Z" fill="#231E2B"/>
<path d="M16.4062 3.60938H13.6719V22.75H16.4062V3.60938Z" fill="#F7FEFF"/>
<path d="M21.875 17.2812H19.1406V20.0156H21.875V17.2812Z" fill="#CF8934"/>
<path d="M24.6094 14.5469V20.0156H27.3438V17.2812H30.0781V14.5469H24.6094Z" fill="#F7FEFF"/>
<path d="M21.875 11.8125H19.1406V17.2812H21.875V11.8125Z" fill="#E2B436"/>
<path d="M27.3438 6.34375H21.875V11.8125H27.3438V6.34375Z" fill="#B0392E"/>
<path d="M21.875 6.34375H19.1406V11.8125H21.875V6.34375Z" fill="#892727"/>
<path d="M32.8125 3.60938H30.0781V14.5469H32.8125V3.60938Z" fill="#F7FEFF"/>
<path d="M16.4062 22.75H19.1406V6.34375H27.3438V11.8125H21.875V20.0156H24.6094V14.5469H30.0781V3.60938H16.4062V22.75Z" fill="#231E2B"/>
<path d="M30.0781 0.875H16.4062V3.60938H30.0781V0.875Z" fill="#F7FEFF"/>
</g>
<defs>
<clipPath id="clip0_2040_7925">
<rect width="43.75" height="43.75" fill="white" transform="translate(0 0.875)"/>
</clipPath>
</defs>
</svg>
