<svg width="45" height="51" viewBox="0 0 45 51" fill="none" xmlns="http://www.w3.org/2000/svg">
<g clip-path="url(#clip0_2040_7809)">
<path d="M13.3751 47.5859H4.00014V50.75H13.3751V47.5859Z" fill="#F7FEFF"/>
<path d="M13.3751 28.6016H10.2501V44.4219H7.12514V9.61719H13.3751V6.45312H4.00014V47.5859H13.3751V28.6016Z" fill="#231E2B"/>
<path d="M4 6.45312H0.875V47.5859H4V6.45312Z" fill="#F7FEFF"/>
<path d="M29 34.9297H22.75V38.0938H29V34.9297Z" fill="#F7FEFF"/>
<path d="M32.1248 31.7656H28.9998V34.9297H32.1248V31.7656Z" fill="#F7FEFF"/>
<path d="M29 31.7656H22.75V34.9297H29V31.7656Z" fill="#231E2B"/>
<path d="M22.7499 31.7656H19.6249V34.9297H22.7499V31.7656Z" fill="#F7FEFF"/>
<path d="M10.2498 31.7656H7.12479V44.4219H10.2498V31.7656Z" fill="#E2B436"/>
<path d="M41.4999 28.6016H32.1249V31.7656H41.4999V28.6016Z" fill="#F7FEFF"/>
<path d="M32.1248 28.6016H28.9998V31.7656H32.1248V28.6016Z" fill="#231E2B"/>
<path d="M29 28.6016H22.75V31.7656H29V28.6016Z" fill="#892727"/>
<path d="M22.7499 28.6016H19.6249V31.7656H22.7499V28.6016Z" fill="#231E2B"/>
<path d="M13.3751 28.6016V47.5859H16.5001V31.7656H19.6251V28.6016H13.3751Z" fill="#F7FEFF"/>
<path d="M10.2498 28.6016H7.12479V31.7656H10.2498V28.6016Z" fill="#CF8934"/>
<path d="M32.1248 25.4375H28.9998V28.6016H32.1248V25.4375Z" fill="#892727"/>
<path d="M22.7499 25.4375H19.6249V28.6016H22.7499V25.4375Z" fill="#892727"/>
<path d="M19.6251 25.4375H13.3751V28.6016H19.6251V25.4375Z" fill="#231E2B"/>
<path d="M13.3749 25.4375H10.2499V28.6016H13.3749V25.4375Z" fill="#892727"/>
<path d="M44.6248 19.1094H41.4998V28.6016H44.6248V19.1094Z" fill="#F7FEFF"/>
<path d="M32.1249 22.2734V12.7812H28.9999V15.9453H22.7499V12.7812H19.6249V22.2734H13.3749V12.7812H10.2499V25.4375H22.7499V28.6016H28.9999V25.4375H38.3749V22.2734H32.1249Z" fill="#9A2D2D"/>
<path d="M10.2498 9.61719H7.12479V28.6016H10.2498V9.61719Z" fill="#CF6B55"/>
<path d="M38.3749 25.4375H32.1249V28.6016H41.4999V19.1094H38.3749V25.4375Z" fill="#231E2B"/>
<path d="M41.5002 12.7812H38.3752V19.1094H41.5002V12.7812Z" fill="#F7FEFF"/>
<path d="M38.3751 12.7812H35.2501V19.1094H38.3751V12.7812Z" fill="#231E2B"/>
<path d="M29 12.7812H22.75V15.9453H29V12.7812Z" fill="#B0392E"/>
<path d="M32.1248 12.7812V22.2734H38.3748V19.1094H35.2498V12.7812H38.3748V9.61719H28.9998V12.7812H32.1248Z" fill="#B0392E"/>
<path d="M29 9.61719H22.75V12.7812H29V9.61719Z" fill="#231E2B"/>
<path d="M10.2499 9.61719V12.7812H13.3749V22.2734H19.6249V12.7812H22.7499V9.61719H10.2499Z" fill="#B0392E"/>
<path d="M44.6248 3.28906H41.4998V12.7812H44.6248V3.28906Z" fill="#F7FEFF"/>
<path d="M38.3749 6.45312H32.1249V9.61719H38.3749V6.45312Z" fill="#CF6B55"/>
<path d="M32.1248 6.45312H28.9998V9.61719H32.1248V6.45312Z" fill="#231E2B"/>
<path d="M29 6.45312H22.75V9.61719H29V6.45312Z" fill="#F7FEFF"/>
<path d="M22.7499 6.45312H19.6249V9.61719H22.7499V6.45312Z" fill="#231E2B"/>
<path d="M19.6251 6.45312H13.3751V9.61719H19.6251V6.45312Z" fill="#CF6B55"/>
<path d="M38.3749 6.45312V12.7812H41.4999V3.28906H32.1249V6.45312H38.3749Z" fill="#231E2B"/>
<path d="M32.1248 3.28906H28.9998V6.45312H32.1248V3.28906Z" fill="#F7FEFF"/>
<path d="M22.7499 3.28906H19.6249V6.45312H22.7499V3.28906Z" fill="#F7FEFF"/>
<path d="M19.6251 3.28906H13.3751V6.45312H19.6251V3.28906Z" fill="#231E2B"/>
<path d="M13.3751 3.28906H4.00014V6.45312H13.3751V3.28906Z" fill="#F7FEFF"/>
<path d="M41.4999 0.125H32.1249V3.28906H41.4999V0.125Z" fill="#F7FEFF"/>
<path d="M19.6251 0.125H13.3751V3.28906H19.6251V0.125Z" fill="#F7FEFF"/>
</g>
<defs>
<clipPath id="clip0_2040_7809">
<rect width="43.75" height="50.625" fill="white" transform="translate(0.875 0.125)"/>
</clipPath>
</defs>
</svg>
